<?xml version="1.0" encoding="UTF-8" standalone="no"?>
<!-- Created with Inkscape (http://www.inkscape.org/) -->

<svg
   width="209.69157mm"
   height="73.528992mm"
   viewBox="0 0 209.69157 73.528992"
   version="1.1"
   id="svg1"
   xml:space="preserve"
   inkscape:version="1.4.2 (f4327f4, 2025-05-13)"
   sodipodi:docname="MJ_Consultoría(vector).svg"
   xmlns:inkscape="http://www.inkscape.org/namespaces/inkscape"
   xmlns:sodipodi="http://sodipodi.sourceforge.net/DTD/sodipodi-0.dtd"
   xmlns="http://www.w3.org/2000/svg"
   xmlns:svg="http://www.w3.org/2000/svg"><sodipodi:namedview
     id="namedview1"
     pagecolor="#505050"
     bordercolor="#eeeeee"
     borderopacity="1"
     inkscape:showpageshadow="0"
     inkscape:pageopacity="0"
     inkscape:pagecheckerboard="0"
     inkscape:deskcolor="#505050"
     inkscape:document-units="mm"
     inkscape:zoom="0.96746633"
     inkscape:cx="530.76783"
     inkscape:cy="95.610563"
     inkscape:window-width="1366"
     inkscape:window-height="745"
     inkscape:window-x="-8"
     inkscape:window-y="-8"
     inkscape:window-maximized="1"
     inkscape:current-layer="layer1" /><defs
     id="defs1" /><g
     inkscape:label="Capa 1"
     inkscape:groupmode="layer"
     id="layer1"
     transform="translate(-0.52974414,-94.067236)"><g
       id="g11"
       transform="translate(0.49263,32.242891)"><path
         style="fill:#47483c"
         d="m 128.49558,134.83184 c -0.39952,-0.7465 0.0992,-1.59292 0.93854,-1.59292 0.35991,0 0.65438,0.1403 0.65438,0.31177 0,0.49052 1.24945,-0.80999 1.60662,-1.67228 0.29475,-0.7116 0.19371,-1.0618 -1.19894,-4.15519 -0.83645,-1.85796 -1.74824,-3.62474 -2.0262,-3.92619 -0.27796,-0.30144 -0.50538,-0.62998 -0.50538,-0.73009 0,-0.1001 0.91454,-0.182 2.0323,-0.182 h 2.0323 l -0.4991,0.5515 c -0.48945,0.54083 -0.48709,0.58318 0.12188,2.19026 0.34153,0.90132 0.77029,2.04194 0.9528,2.5347 0.38633,1.04308 0.37347,1.05793 1.46717,-1.6953 l 0.83863,-2.11113 -0.68538,-0.58954 c -0.37696,-0.32424 -0.68538,-0.655 -0.68538,-0.73501 0,-0.08 0.83629,-0.14548 1.85841,-0.14548 1.02212,0 1.85841,0.0759 1.85841,0.16867 0,0.0928 -0.27188,0.42131 -0.60418,0.73009 -0.3323,0.30878 -1.54231,2.744 -2.68892,5.4116 -1.50433,3.49985 -2.30267,5.03356 -2.86752,5.50885 -0.96386,0.81104 -2.20219,0.87185 -2.60044,0.12769 z m -32.026441,-3.74029 c -0.867658,-0.25149 -1.149126,-0.78993 -1.155779,-2.21096 l -0.0036,-0.77426 1.021165,1.10612 c 0.75108,0.81356 1.22505,1.10504 1.792035,1.10205 1.06499,-0.006 1.496911,-0.34247 1.391443,-1.08519 -0.06604,-0.46508 -0.541275,-0.87598 -1.80758,-1.56289 -2.399504,-1.30162 -3.010788,-2.71094 -1.790958,-4.12908 0.669669,-0.77853 2.350475,-1.1196 3.996101,-0.81088 0.843404,0.15823 0.926894,0.25977 1.020484,1.24114 0.0561,0.58785 0.0506,1.1202 -0.0122,1.183 -0.0628,0.0628 -0.57463,-0.30182 -1.137407,-0.81026 -1.115757,-1.00802 -1.817595,-1.15256 -2.46292,-0.50723 -0.724934,0.72493 -0.463818,1.14478 1.242099,1.99719 2.200148,1.09936 2.853978,1.72933 2.853978,2.74981 0,2.0873 -2.329606,3.27002 -4.946786,2.51144 z m 8.568711,0.016 c -1.57476,-0.47191 -2.55997,-2.00164 -2.55997,-3.97481 0,-1.39475 0.52394,-2.59283 1.55995,-3.56711 0.67906,-0.6386 1.10488,-0.79657 2.35571,-0.87393 2.35953,-0.14592 3.2846,0.56426 2.8727,2.2054 -0.21581,0.85987 -0.58189,0.81026 -1.07633,-0.14587 -0.75809,-1.46599 -2.42382,-1.72228 -3.09102,-0.47559 -0.95285,1.78041 -0.73977,4.01178 0.47429,4.96676 0.86331,0.67908 1.67618,0.68938 3.02372,0.0383 0.72704,-0.35127 1.04912,-0.40727 1.04912,-0.18241 0,0.53627 -1.4379,1.74385 -2.40762,2.02196 -1.03875,0.29791 -1.16646,0.29717 -2.20055,-0.0127 z m 6.18067,-0.50306 c -1.3193,-1.31929 -0.95972,-2.57178 1.02553,-3.57214 0.68834,-0.34686 1.6398,-0.7146 2.11436,-0.8172 0.69207,-0.14963 0.86283,-0.31718 0.86283,-0.84662 0,-1.09211 -0.4702,-1.68712 -1.33321,-1.68712 -0.64455,0 -0.85244,0.16484 -1.17181,0.9292 -0.30334,0.726 -0.54003,0.92921 -1.08233,0.92921 -0.6219,0 -0.68543,-0.0889 -0.61089,-0.85436 0.1173,-1.20462 1.44857,-2.066 3.19301,-2.066 2.55399,0 3.12912,0.87592 3.12912,4.76558 0,2.49106 0.0352,2.66805 0.53098,2.66805 1.10442,0 0.39512,0.89534 -0.89374,1.12816 -0.52924,0.0956 -0.91438,-0.0159 -1.26464,-0.36618 -0.49453,-0.49453 -0.52259,-0.49397 -1.55143,0.0309 -1.41908,0.72396 -2.0326,0.67369 -2.94778,-0.24149 z m 3.67997,-1.14874 c 0.15028,-0.18253 0.31114,-0.80974 0.35747,-1.39381 0.0739,-0.932 0.0204,-1.0506 -0.43767,-0.96919 -1.21052,0.21513 -1.98643,0.83833 -1.98643,1.59548 0,0.40996 0.0796,0.82504 0.17699,0.92238 0.30139,0.3014 1.60172,0.19483 1.88964,-0.15486 z m 31.33706,1.55442 c -1.74862,-0.47083 -2.98003,-1.51005 -3.81742,-3.22162 -0.60763,-1.24195 -0.69707,-1.69867 -0.57131,-2.91716 0.20085,-1.94605 1.35246,-4.01789 2.7938,-5.02628 0.96525,-0.6753 1.44467,-0.81542 3.0531,-0.89232 3.42566,-0.1638 4.33746,0.44423 4.40371,2.93658 0.034,1.28009 -0.25813,1.25999 -1.00514,-0.0691 -0.77342,-1.37612 -1.88232,-1.95534 -3.4131,-1.7828 -2.26224,0.25499 -3.75999,2.75416 -3.41413,5.69689 0.19384,1.64926 0.46783,2.28453 1.43064,3.31706 1.56189,1.67499 4.03213,1.52193 5.31201,-0.32915 0.39487,-0.5711 0.80756,-1.0429 0.91707,-1.04844 0.37474,-0.019 0.20683,2.33366 -0.19525,2.73574 -0.40623,0.40623 -2.63257,0.98481 -3.66738,0.95308 -0.32135,-0.01 -1.14332,-0.16845 -1.8266,-0.35244 z m 10.16678,0.10963 c -0.4942,-0.11979 -1.31995,-0.6392 -1.83499,-1.15423 -0.79251,-0.79251 -0.95508,-1.16129 -1.05775,-2.3994 -0.23833,-2.87385 1.56572,-4.94671 4.30523,-4.94671 1.51123,0 2.56015,0.51133 3.45464,1.68407 0.56089,0.73536 0.67744,1.17646 0.67744,2.56372 0,1.3898 -0.1162,1.8279 -0.68139,2.5689 -0.37477,0.49134 -0.94225,1.05862 -1.26106,1.26061 -0.77323,0.48988 -2.49304,0.69186 -3.60212,0.42304 z m 2.49475,-1.24065 c 1.46781,-1.46781 1.13261,-5.48658 -0.52045,-6.23976 -2.43638,-1.11009 -3.89996,3.90756 -1.81258,6.2141 0.53137,0.58715 1.75804,0.60064 2.33303,0.0257 z m 15.94543,0.8813 c -0.65506,-0.65507 -0.68322,-0.80953 -0.68322,-3.74839 v -3.06516 h -0.66371 c -0.802,0 -0.90038,-0.68557 -0.13332,-0.92903 0.29172,-0.0926 0.89481,-0.69798 1.34019,-1.34532 1.07497,-1.56242 1.55826,-1.55622 1.38085,0.0177 l -0.13466,1.19469 h 1.38143 c 1.17227,0 1.36807,0.0704 1.2932,0.4646 -0.0665,0.35007 -0.3985,0.48455 -1.3469,0.54552 l -1.25867,0.0809 0.0314,2.17572 c 0.0173,1.19664 0.11087,2.53412 0.20798,2.97218 0.16557,0.74681 0.24636,0.79202 1.29603,0.72527 0.61569,-0.0392 1.11945,0.0477 1.11945,0.19299 0,0.41519 -1.17951,1.08227 -2.20906,1.24934 -0.77071,0.12507 -1.05949,0.0305 -1.621,-0.53104 z m 5.71255,0.34072 c -1.29564,-0.53839 -1.74148,-1.96611 -0.96165,-3.07948 0.21443,-0.30614 1.20005,-0.8918 2.19027,-1.30147 2.2669,-0.93785 2.28942,-0.95908 2.07116,-1.95283 -0.35183,-1.60184 -1.74438,-1.67218 -2.39257,-0.12085 -0.44158,1.05686 -1.08109,1.38823 -1.62651,0.84282 -0.29815,-0.29815 -0.32579,-0.55365 -0.11877,-1.09813 0.73993,-1.94617 4.48728,-2.421 5.78342,-0.73283 0.2083,0.27131 0.32642,1.47326 0.33185,3.377 0.008,2.83185 0.0333,2.96226 0.60121,3.11077 0.74347,0.19443 0.38416,0.61255 -0.82419,0.9591 -0.71404,0.20478 -0.95031,0.15546 -1.39749,-0.29172 -0.49154,-0.49154 -0.57807,-0.50207 -0.9986,-0.12149 -0.60576,0.54821 -1.85916,0.74112 -2.65813,0.40911 z m 2.83719,-1.46136 c 0.46145,-0.32321 0.59005,-0.67428 0.59005,-1.61081 0,-1.11601 -0.0407,-1.18579 -0.59734,-1.02502 -1.66637,0.48125 -2.48915,1.7831 -1.65446,2.61779 0.53907,0.53907 0.9121,0.54312 1.66175,0.018 z m 6.75457,1.36432 c -0.77101,-0.19121 -1.4765,-0.42231 -1.56775,-0.51356 -0.0912,-0.0912 -0.13913,-2.48869 -0.1064,-5.32764 0.0573,-4.96995 0.0383,-5.18297 -0.5119,-5.73314 -0.31426,-0.31426 -0.49621,-0.64657 -0.40432,-0.73846 0.3042,-0.3042 2.50237,-1.0573 2.65131,-0.90835 0.0804,0.0804 0.14622,1.38073 0.14622,2.88958 0,1.50885 0.0896,2.73956 0.19912,2.73492 0.10951,-0.005 0.43102,-0.18385 0.71446,-0.39823 0.61645,-0.46627 2.251,-0.50905 3.18525,-0.0834 1.36954,0.624 2.05141,2.36468 1.72792,4.41104 -0.47998,3.03635 -2.8267,4.46261 -6.03391,3.66722 z m 3.14761,-1.37066 c 0.56047,-0.59659 0.64362,-0.93682 0.64362,-2.63348 0,-1.69665 -0.0832,-2.03688 -0.64362,-2.63348 -0.73404,-0.78135 -1.49698,-0.86958 -2.3504,-0.27182 -0.53635,0.37568 -0.59005,0.6335 -0.59005,2.83308 0,1.87908 0.0982,2.52828 0.43938,2.9053 0.63141,0.6977 1.74132,0.60912 2.50107,-0.1996 z m 11.55628,1.47137 c -2.67491,-0.80046 -3.57632,-4.33381 -1.74912,-6.85618 0.89243,-1.23197 2.18593,-1.75063 3.88757,-1.55883 1.41271,0.15923 2.11795,0.74086 2.51821,2.07682 0.51311,1.71261 0.33198,1.83511 -2.71328,1.83511 -2.34532,0 -2.67087,0.054 -2.53046,0.41995 0.0886,0.23097 0.16115,0.59856 0.16115,0.81688 0,0.21832 0.34922,0.74616 0.77604,1.17298 0.90048,0.90048 2.42272,1.05614 3.42984,0.35072 0.80381,-0.56301 1.02067,-0.29069 0.45545,0.57195 -0.79137,1.20778 -2.51718,1.68477 -4.2354,1.1706 z m 1.58693,-5.56502 c 1.07128,0 1.17298,-0.057 1.17298,-0.6576 0,-0.93549 -1.12625,-1.64319 -1.98926,-1.24998 -1.1106,0.50603 -1.80209,2.46223 -0.72413,2.04858 0.20209,-0.0775 0.89528,-0.141 1.54041,-0.141 z m -125.464189,5.31907 c 0,-0.14088 0.238938,-0.38402 0.530974,-0.54031 0.501577,-0.26844 0.530973,-0.55588 0.530973,-5.19203 v -4.90785 l -0.663717,-0.30241 c -0.365044,-0.16633 -0.663716,-0.4027 -0.663716,-0.52528 0,-0.12258 1.971239,-0.22288 4.380531,-0.22288 h 4.380531 v 1.47909 1.47908 l -0.89418,-0.94811 c -0.831884,-0.88205 -1.00494,-0.94811 -2.484,-0.94811 h -1.589821 l -0.170734,1.83704 c -0.222834,2.3976 -0.09947,2.67624 1.184838,2.67624 1.002745,0 2.095489,-0.69223 2.095489,-1.32744 0,-0.14602 0.119469,-0.26548 0.265487,-0.26548 0.153393,0 0.265487,0.8407 0.265487,1.99115 0,1.9057 -0.324773,2.59519 -0.719056,1.52655 -0.253467,-0.68699 -0.617598,-0.85426 -1.86944,-0.85877 l -1.128318,-0.004 v 2.13047 c 0,2.02821 0.03185,2.14257 0.663717,2.38281 1.320435,0.50203 0.682501,0.79646 -1.725664,0.79646 -1.357841,0 -2.389381,-0.11058 -2.389381,-0.25615 z m 9.292036,0 c 0,-0.14088 0.238938,-0.38402 0.530973,-0.54031 0.482558,-0.25826 0.530974,-0.55588 0.530974,-3.26407 0,-2.77035 -0.04052,-3.00519 -0.576212,-3.33974 -0.720925,-0.45023 -0.362609,-0.68573 1.439043,-0.9458 l 1.261062,-0.18204 v 3.66922 c 0,3.40497 0.03898,3.69356 0.541276,4.00725 0.297701,0.18592 0.469854,0.45359 0.382561,0.59483 -0.207157,0.33519 -4.109677,0.33582 -4.109677,6.6e-4 z m 28.938053,0 c 0,-0.14088 0.23894,-0.38402 0.53097,-0.54031 0.50298,-0.26919 0.53098,-0.55588 0.53098,-5.43677 0,-5.01432 -0.0157,-5.16362 -0.58654,-5.56342 -0.35633,-0.24959 -0.48658,-0.49841 -0.33185,-0.63401 0.2718,-0.23821 2.23907,-0.84368 2.74122,-0.84368 0.21568,0 0.30106,1.72905 0.30106,6.09686 0,5.82514 0.0237,6.10951 0.53097,6.38102 1.02189,0.54689 0.52275,0.79646 -1.59292,0.79646 -1.1873,0 -2.12389,-0.11296 -2.12389,-0.25615 z m 43.80531,0 c 0,-0.14088 0.23894,-0.38402 0.53097,-0.54031 0.48116,-0.25751 0.53098,-0.55588 0.53098,-3.18013 0,-2.70155 -0.0401,-2.92421 -0.59735,-3.31673 -0.50708,-0.35718 -0.53717,-0.45914 -0.19911,-0.6747 0.21902,-0.13967 0.63716,-0.2574 0.9292,-0.26163 0.29204,-0.004 0.80684,-0.0816 1.144,-0.17188 0.47677,-0.12769 0.64574,-0.0391 0.76018,0.39851 l 0.14715,0.5627 0.79182,-0.56383 c 1.1515,-0.81994 2.718,-0.75873 3.61904,0.14142 0.66927,0.66861 0.71059,0.86376 0.79524,3.75594 0.0789,2.6963 0.14917,3.08274 0.60478,3.32657 0.91373,0.48901 0.25247,0.78022 -1.77168,0.78022 -1.97541,0 -2.44693,-0.25998 -1.44451,-0.79646 0.47557,-0.25452 0.53097,-0.55588 0.53097,-2.88855 0,-2.18591 -0.078,-2.67498 -0.48551,-3.04376 -0.55311,-0.50056 -1.43498,-0.56692 -2.18681,-0.16455 -0.45763,0.24492 -0.51352,0.57812 -0.51352,3.06143 0,2.23207 0.0793,2.81702 0.39823,2.93942 0.21903,0.0841 0.39823,0.31924 0.39823,0.52264 0,0.28324 -0.4662,0.36983 -1.99115,0.36983 -1.10204,0 -1.99115,-0.11438 -1.99115,-0.25615 z m 33.9823,-0.0177 c 0,-0.1506 0.20907,-0.35096 0.4646,-0.44524 0.25553,-0.0943 0.55238,-0.2996 0.65965,-0.45627 0.10728,-0.15667 0.19688,-2.46516 0.19912,-5.12998 0.004,-4.49416 -0.0344,-4.8836 -0.52691,-5.37611 -0.29203,-0.29203 -0.53097,-0.63626 -0.53097,-0.76494 0,-0.21236 1.96266,-0.82798 2.63968,-0.82798 0.18911,0 0.28067,1.9939 0.28067,6.11189 v 6.11188 l 0.65539,0.29862 c 0.36047,0.16424 0.59236,0.40062 0.51531,0.52528 -0.20442,0.33075 -4.35654,0.28581 -4.35654,-0.0472 z M 4.3215449,129.62706 C 2.8710725,129.25878 1.3959399,128.08054 0.68240324,126.72035 0.1375468,125.68171 0.13207565,125.41618 0.05633726,96.336265 8.0624883e-4,75.015017 0.06247525,66.699419 0.28205544,65.899878 0.68115903,64.44665 1.8552786,63.062337 3.26934,62.377802 4.410101,61.825569 4.548021,61.822996 32.937803,61.82447 c 20.037618,0.001 28.838279,0.08893 29.584321,0.295466 1.409032,0.390071 3.428026,2.409066 3.818097,3.818098 0.430567,1.55531 0.416063,58.213396 -0.01527,59.653056 -0.171719,0.57315 -0.771257,1.56358 -1.332306,2.20097 -1.888844,2.14584 0.217244,2.00688 -31.391493,2.07112 -19.82832,0.0403 -28.4652429,-0.0293 -29.2796071,-0.23612 z m 57.5271881,-3.81488 c 0.404806,-0.28825 0.873099,-0.85572 1.040653,-1.26106 0.224257,-0.54251 0.28605,-8.25609 0.234178,-29.232248 l -0.07047,-28.49527 -0.86702,-0.774642 -0.86702,-0.774643 H 33.16123 5.0034037 l -0.7760381,0.776038 c -0.4677815,0.467782 -0.7856247,1.074155 -0.8001722,1.526549 -0.013274,0.412781 -0.00741,13.455101 0.013024,28.982934 0.027362,20.789222 0.1177983,28.361552 0.3430294,28.722202 0.168229,0.26938 0.5506424,0.60869 0.8498076,0.75403 0.3496787,0.16989 10.5321896,0.27068 28.5118026,0.28223 27.434742,0.0176 27.981896,0.008 28.703876,-0.50612 z M 8.4955752,106.14612 v -2.53248 l 9.1358408,-9.100899 9.13584,-9.100901 2.080974,1.136399 c 1.144535,0.625019 3.274846,1.81165 4.734023,2.636956 l 2.653049,1.500557 6.240756,-6.020322 c 3.432416,-3.311178 6.87772,-6.605105 7.656232,-7.319839 l 1.415475,-1.299517 -1.893681,-1.827368 C 48.61256,73.213653 47.80612,72.253504 47.861996,72.08504 c 0.0698,-0.210438 1.659887,-0.347842 5.080751,-0.439041 2.738537,-0.07301 5.028588,-0.08297 5.089002,-0.02212 0.20576,0.207213 0.110755,10.376107 -0.09694,10.376107 -0.113731,0 -0.97643,-0.776549 -1.917109,-1.725664 -0.940679,-0.949115 -1.828691,-1.725664 -1.97336,-1.725664 -0.14467,0 -2.179095,1.882089 -4.520944,4.182421 -8.673233,8.519467 -12.582302,12.277757 -12.77033,12.277757 -0.106204,0 -1.519754,-0.756845 -3.141223,-1.681877 -1.621469,-0.925033 -3.695878,-2.088154 -4.609798,-2.584714 l -1.661672,-0.902836 -9.422399,9.419594 -9.4223978,9.419587 z m 82.9979788,14.74312 c -0.533548,-0.53355 -0.535189,-0.65863 -0.01832,-1.39656 0.789644,-1.12737 2.092435,-0.5057 1.928908,0.92045 -0.06657,0.58055 -0.240175,0.76407 -0.782267,0.82693 -0.385414,0.0447 -0.889557,-0.11206 -1.128318,-0.35082 z m -3.950389,-8.89512 c -2.963725,-0.74869 -5.602698,-3.08672 -6.421198,-5.68894 -0.708185,-2.25151 -0.507694,-5.65828 0.447451,-7.603177 0.868211,-1.767877 2.432834,-3.388034 4.053618,-4.197492 2.200065,-1.098766 6.140372,-1.163697 8.823867,-0.145407 l 1.128318,0.428157 v 2.367422 c 0,2.291349 -0.296017,3.074217 -0.641674,1.697013 -0.232256,-0.925384 -1.967214,-2.787268 -3.000241,-3.219733 -1.803266,-0.754916 -4.492316,-0.215432 -5.685559,1.140654 -1.132341,1.28687 -1.654758,2.860695 -1.770905,5.334993 -0.175261,3.73362 0.780681,6.18833 2.960316,7.60163 2.879872,1.86734 6.330462,0.64537 7.633004,-2.70311 0.139758,-0.35928 0.36321,-0.53629 0.539475,-0.42736 0.44329,0.27397 0.08592,3.52077 -0.453079,4.11636 -1.003832,1.10922 -5.397246,1.85882 -7.613393,1.29899 z m 14.315455,-0.0965 c -2.633287,-0.73409 -4.206206,-2.65838 -4.377976,-5.35598 -0.158039,-2.48195 0.337332,-3.97894 1.797855,-5.43307 3.737791,-3.721405 10.188981,-1.63111 10.789481,3.49597 0.58495,4.99434 -3.48507,8.61009 -8.20936,7.29308 z m 3.79641,-1.972 c 1.82604,-1.82604 1.54585,-7.24078 -0.45616,-8.81556 -1.34993,-1.06186 -2.98916,-0.5076 -3.94062,1.3324 -0.56372,1.09018 -0.63246,4.38374 -0.12366,5.92542 0.72327,2.19153 3.07593,3.00225 4.52044,1.55774 z m 22.69832,1.96987 c -1.90391,-0.46258 -1.98167,-0.54703 -1.98167,-2.15214 0,-1.33543 0.47923,-2.27914 0.74797,-1.47292 0.0636,0.19071 0.56438,0.80921 1.11292,1.37443 0.86979,0.89627 1.15166,1.02769 2.20412,1.02769 1.33787,0 2.04361,-0.48944 2.03712,-1.41277 -0.006,-0.89419 -0.24114,-1.10765 -2.51806,-2.28862 -2.85291,-1.47971 -3.58407,-2.29196 -3.58407,-3.98155 0,-2.2449 1.76998,-3.73299 4.44013,-3.73299 1.5086,0 3.00475,0.38868 3.30263,0.85798 0.11754,0.18519 0.21554,1.04544 0.21778,1.91167 l 0.004,1.57496 -1.40398,-1.50859 c -1.1446,-1.22988 -1.5615,-1.50859 -2.25663,-1.50859 -0.95017,0 -1.91461,0.78167 -1.91461,1.55178 0,0.68822 0.60991,1.13783 3.11381,2.29542 2.40067,1.10987 2.77201,1.42845 3.22003,2.76251 0.41651,1.24022 0.004,2.61888 -1.1044,3.69344 -0.6831,0.66209 -1.24883,0.91898 -2.46088,1.11746 -0.86563,0.14175 -1.6336,0.24827 -1.70661,0.23669 -0.073,-0.0116 -0.73436,-0.16721 -1.46966,-0.34586 z m 11.62616,0.12258 c -2.07251,-0.51944 -2.45739,-1.53843 -2.45739,-6.50604 v -3.85013 l -0.79646,-0.58885 c -0.43805,-0.32387 -0.79646,-0.66394 -0.79646,-0.7557 0,-0.0918 0.80642,-0.320383 1.79204,-0.508025 0.98562,-0.187641 2.06084,-0.401714 2.38938,-0.475717 l 0.59734,-0.13455 v 4.819612 c 0,4.76313 0.008,4.82724 0.65165,5.47126 0.91059,0.91059 2.70606,0.7778 3.39296,-0.25093 0.10728,-0.16066 0.19688,-1.9301 0.19912,-3.93209 0.004,-3.75214 0.005,-3.74978 -1.19021,-4.57746 -0.29181,-0.20211 -0.46328,-0.43475 -0.38105,-0.51698 0.13294,-0.13293 4.05994,-0.95569 4.56205,-0.955805 0.10951,-2.5e-5 0.19911,2.394895 0.19911,5.322035 v 5.32208 l 0.80005,0.45226 c 1.28333,0.72544 0.90194,1.17145 -1.33124,1.55677 -2.33647,0.40315 -2.65465,0.33501 -2.65465,-0.56854 v -0.67538 l -1.04822,0.66171 c -1.18689,0.74925 -2.6602,1.00823 -3.92802,0.69047 z m 21.19487,0.0213 c -0.35189,-0.1016 -0.8895,-0.51876 -1.19469,-0.92701 -0.50421,-0.67446 -0.56252,-1.16362 -0.63821,-5.35378 l -0.0833,-4.61151 -0.71089,-0.0824 c -0.98632,-0.11429 -1.0197,-0.79577 -0.0666,-1.358805 0.43822,-0.258864 1.34463,-1.182655 2.01425,-2.052869 1.68009,-2.183408 1.7997,-2.15037 1.72081,0.475315 l -0.0419,1.393805 h 1.76255 1.76255 l -0.084,0.730084 c -0.0792,0.68853 -0.17469,0.73765 -1.67693,0.86284 l -1.59292,0.13274 -0.0847,2.25664 c -0.0466,1.24115 -0.006,3.12697 0.0899,4.19071 0.14958,1.6566 0.26781,1.99512 0.82412,2.35963 0.59097,0.38721 0.74432,0.3883 1.70214,0.0121 0.98507,-0.38695 1.05265,-0.38342 1.05265,0.055 0,1.22554 -2.98385,2.42888 -4.75482,1.91754 z m 9.89076,-0.0673 c -1.38821,-0.32563 -3.35045,-2.02164 -3.87888,-3.35262 -1.15306,-2.90428 -0.69619,-5.43902 1.34708,-7.4736 3.58876,-3.573504 9.59301,-1.894741 10.68564,2.98766 0.6297,2.81378 -0.70092,5.94344 -3.08093,7.24648 -1.24898,0.68381 -3.54126,0.95135 -5.07291,0.59208 z m 3.68474,-1.82032 c 0.92833,-0.73023 1.36027,-2.51188 1.21546,-5.01346 -0.1755,-3.03166 -1.27844,-4.55416 -3.29914,-4.55416 -0.89616,0 -2.1025,1.2457 -2.4627,2.54305 -0.63838,2.29928 -0.15306,5.4767 1.02995,6.74311 0.91654,0.98116 2.46893,1.10542 3.51643,0.28146 z m 24.76339,1.71658 c -0.58407,-0.21519 -1.0782,-0.39304 -1.09806,-0.39524 -0.17647,-0.0195 -0.89309,-1.93999 -0.89309,-2.39338 0,-1.81717 1.39497,-2.99611 4.8318,-4.08354 l 1.93812,-0.61323 -0.0147,-1.20336 c -0.0192,-1.57425 -0.682,-2.59545 -1.68462,-2.59545 -0.89507,0 -1.21539,0.33209 -1.6758,1.73739 -0.66402,2.02676 -2.86386,2.19412 -2.86386,0.21787 0,-0.71652 0.21261,-1.15902 0.87529,-1.8217 1.54451,-1.544511 4.90305,-1.982268 6.58545,-0.858353 1.5775,1.053843 1.83041,1.934423 1.83088,6.374723 4.3e-4,4.12141 -0.01,4.08597 1.24074,4.29517 0.47538,0.0795 0.52546,0.59072 0.1006,1.02687 -0.33455,0.34345 -2.21209,0.70917 -2.8011,0.54563 -0.29204,-0.0811 -0.78702,-0.45162 -1.09995,-0.82341 l -0.56898,-0.67599 -0.8912,0.67651 c -1.15895,0.87975 -2.47235,1.08288 -3.81156,0.58949 z m 4.31416,-2.41519 c 0.46446,-0.51981 0.59735,-0.99007 0.59735,-2.1139 0,-1.61777 -0.12935,-1.69701 -1.69936,-1.04102 -1.40654,0.58769 -2.01746,1.30482 -2.01746,2.3682 0,1.7516 1.8422,2.2162 3.11947,0.78672 z m -92.58849,2.02277 c 0,-0.14227 0.34393,-0.43652 0.76429,-0.6539 0.42035,-0.21738 0.8385,-0.58862 0.9292,-0.82499 0.0907,-0.23637 0.16492,-2.14758 0.16492,-4.24714 0,-3.93862 0.005,-3.92 -1.1947,-4.7587 -0.35375,-0.24737 -0.44236,-0.45972 -0.26548,-0.6362 0.34705,-0.34629 3.82369,-1.145605 4.13797,-0.951366 0.13341,0.08245 0.24256,0.443226 0.24256,0.801726 v 0.65181 l 1.08595,-0.71865 c 1.48318,-0.981516 3.72072,-1.143442 4.96985,-0.359653 1.39237,0.873673 1.64331,1.840423 1.64331,6.330833 0,3.48922 0.0566,4.0009 0.48551,4.38906 0.26703,0.24166 0.62544,0.43938 0.79646,0.43938 0.17103,0 0.31095,0.1792 0.31095,0.39823 0,0.33089 -0.51622,0.39823 -3.05309,0.39823 -1.67921,0 -3.0531,-0.0851 -3.0531,-0.18915 0,-0.10402 0.32854,-0.45084 0.73009,-0.7707 0.71753,-0.57157 0.73161,-0.6395 0.81863,-3.95015 0.0988,-3.76019 -0.13242,-4.71613 -1.28506,-5.31219 -0.54721,-0.28297 -0.95665,-0.30975 -1.68044,-0.1099 -1.59272,0.43977 -1.76906,0.94438 -1.76906,5.06215 0,3.56483 0.0134,3.64905 0.66372,4.16056 1.20479,0.94769 0.85654,1.10938 -2.38938,1.10938 -1.80476,0 -3.0531,-0.10577 -3.0531,-0.25867 z m 39.82301,0.0431 c 0,-0.11856 0.3584,-0.48055 0.79646,-0.80441 l 0.79646,-0.58885 v -7.67616 -7.676156 l -0.80404,-0.474958 c -0.44223,-0.261228 -0.77077,-0.640152 -0.73009,-0.842054 0.0775,-0.384566 2.82805,-1.357228 3.85714,-1.363964 l 0.59734,-0.0039 v 9.035502 9.0355 l 0.92881,0.54801 c 0.51084,0.30141 0.8622,0.65579 0.78079,0.78751 -0.18395,0.29764 -6.22287,0.32087 -6.22287,0.0239 z m 29.20354,0 c 0,-0.11856 0.3584,-0.48055 0.79646,-0.80441 l 0.79646,-0.58885 v -4.2206 -4.2206 l -0.84922,-0.66461 -0.84922,-0.66461 0.6501,-0.25107 c 0.82461,-0.318465 3.05589,-0.84757 3.57427,-0.84757 0.27619,0 0.39442,0.28779 0.39442,0.9601 v 0.96009 l 1.06271,-0.96009 c 1.53186,-1.383941 3.44555,-1.277533 3.8195,0.21237 0.40828,1.62675 -1.18811,2.8489 -2.32552,1.78035 -0.77085,-0.72417 -1.2631,-0.71149 -1.97944,0.051 -0.53287,0.56721 -0.57725,0.88559 -0.57725,4.14127 v 3.52681 l 0.79646,0.74401 c 0.43805,0.4092 0.79646,0.81554 0.79646,0.90298 0,0.0874 -1.37389,0.15897 -3.0531,0.15897 -1.6792,0 -3.05309,-0.097 -3.05309,-0.21556 z m 10.08849,-0.0354 c 0,-0.13805 0.32854,-0.40769 0.73009,-0.5992 0.7184,-0.34262 0.73385,-0.40173 0.96518,-3.69241 0.31314,-4.4545 0.12342,-5.68099 -0.96589,-6.2443 -0.75164,-0.38869 -0.78743,-0.46096 -0.37686,-0.76117 0.2495,-0.18244 1.07867,-0.413223 1.84259,-0.512854 0.76393,-0.09963 1.65777,-0.247153 1.98631,-0.327828 l 0.59734,-0.14668 v 5.451992 c 0,5.36957 0.009,5.4593 0.60984,5.93586 1.34692,1.06871 1.19661,1.14759 -2.18709,1.14759 -1.83416,0 -3.20151,-0.1072 -3.20151,-0.251 z m 2.00494,-13.266523 c -0.1603,-0.259367 1.66377,-4.004481 2.11011,-4.332399 0.36515,-0.26827 2.78761,-0.255049 2.78761,0.01521 0,0.239537 -4.35641,4.560367 -4.59791,4.560367 -0.0822,0 -0.21715,-0.109432 -0.29981,-0.243182 z m -59.41896,-6.767309 c -1.37512,-0.499156 -1.78952,-0.89977 -1.78952,-1.729981 0,-1.451198 1.29195,-1.79039 2.60645,-0.684307 0.95268,0.801626 1.61823,0.839312 2.37478,0.134472 1.02204,-0.952174 1.12195,-2.105824 1.12349,-12.973469 l 0.001,-10.449616 -1.19469,-1.177789 c -0.65708,-0.647784 -1.19469,-1.231962 -1.19469,-1.298172 0,-0.06621 1.9115,-0.120383 4.24778,-0.120383 3.97936,0 4.24779,0.03152 4.24779,0.498765 0,0.305273 -0.31291,0.628378 -0.8066,0.832872 -0.44364,0.183758 -0.92151,0.548806 -1.06195,0.811215 -0.14734,0.275308 -0.25881,3.993619 -0.26354,8.791023 -0.009,8.841677 -0.21151,11.515979 -1.01019,13.321516 -1.3994,3.16359 -4.6823,4.98701 -7.28059,4.043854 z m -1.85589,-5.643212 c 0.18252,-0.07365 0.4812,-0.07365 0.66372,0 0.18252,0.07365 0.0332,0.133908 -0.33186,0.133908 -0.36505,0 -0.51438,-0.06026 -0.33186,-0.133908 z M 82.219736,85.281664 c -0.364246,-0.364245 -0.16904,-0.626081 0.75442,-1.011928 0.625007,-0.261144 1.058119,-0.683807 1.295889,-1.264624 0.350419,-0.855992 0.775655,-5.848139 1.103266,-12.952034 0.19111,-4.144007 0.02024,-4.844065 -1.340731,-5.493068 -0.570813,-0.272202 -0.935235,-0.636811 -0.935235,-0.935717 0,-0.454157 0.244679,-0.484336 3.368153,-0.41543 l 3.368153,0.0743 3.138812,7.566372 c 1.726347,4.161504 3.210355,7.835177 3.297796,8.163717 0.237736,0.893237 0.503621,0.732935 1.100872,-0.663717 3.500959,-8.186874 5.664199,-13.148285 6.136389,-14.073847 l 0.57407,-1.125269 h 3.0477 c 3.38303,0 3.8271,0.27146 2.14484,1.311153 -0.49657,0.3069 -0.97445,0.744556 -1.06195,0.97257 -0.28463,0.741743 -0.17858,17.360764 0.11427,17.907975 0.15035,0.280924 0.62823,0.69428 1.06195,0.918568 0.43373,0.224287 0.78859,0.583931 0.78859,0.799208 0,0.327496 -0.6503,0.391412 -3.9823,0.391412 -3.29351,0 -3.9823,-0.06628 -3.9823,-0.38322 0,-0.210772 0.36118,-0.596575 0.80262,-0.857341 0.54209,-0.320219 0.89263,-0.808405 1.07993,-1.503952 0.31379,-1.16534 0.27377,-15.7204 -0.0423,-15.38408 -0.10763,0.114531 -1.84184,4.090982 -3.85379,8.836557 -2.011957,4.745576 -3.7705,8.777656 -3.90788,8.960178 -0.137379,0.182522 -0.520817,0.331858 -0.852084,0.331858 -0.671185,0 -0.69811,-0.05581 -5.18724,-10.752213 -1.348195,-3.212389 -2.536598,-5.937109 -2.640895,-6.054932 -0.388153,-0.43849 -1.035232,12.899788 -0.692127,14.266831 0.131528,0.524046 0.508193,0.86533 1.381299,1.251546 1.956746,0.865562 1.394864,1.147422 -2.451474,1.229743 -1.894401,0.04054 -3.527317,-0.0092 -3.628703,-0.11062 z m 46.126394,-1.22416 -0.77976,-0.862832 0.86283,0.779759 c 0.80428,0.726844 0.98487,0.945905 0.77976,0.945905 -0.0457,0 -0.43396,-0.388275 -0.86283,-0.862832 z m -16.02429,-4.070797 c 0.0127,-0.309277 0.0757,-0.372186 0.1604,-0.160398 0.0767,0.191648 0.0673,0.42063 -0.021,0.508849 -0.0882,0.08822 -0.15096,-0.06858 -0.13944,-0.348451 z m 10.97152,-4.159292 -0.50575,-0.597345 0.59735,0.505749 c 0.32854,0.278162 0.59734,0.546967 0.59734,0.597345 0,0.212456 -0.21366,0.05561 -0.68894,-0.505749 z m -8.81682,-8.030974 c 0.005,-0.438053 0.0649,-0.585116 0.13222,-0.326806 0.0673,0.25831 0.0629,0.616717 -0.01,0.796461 -0.0727,0.179743 -0.1278,-0.0316 -0.12238,-0.469655 z m 8.19929,-0.818584 c 0.0127,-0.309277 0.0756,-0.372186 0.16039,-0.160398 0.0767,0.191648 0.0673,0.42063 -0.0209,0.508849 -0.0882,0.08822 -0.15097,-0.06858 -0.13944,-0.348451 z m 1.41399,-2.566372 -0.50575,-0.597345 0.59735,0.505749 c 0.32854,0.278162 0.59734,0.546967 0.59734,0.597345 0,0.212457 -0.21366,0.05561 -0.68894,-0.505749 z"
         id="path12" /><path
         style="fill:#6c1e2f"
         d="m 8.4955752,118.30348 v -4.31597 l 7.3008848,-7.29726 7.300885,-7.297267 v 11.613237 11.61323 H 15.79646 8.4955752 Z M 28.141593,110.67255 V 98.725646 h 6.106195 6.106194 v 11.946904 11.9469 h -6.106194 -6.106195 z m 17.787611,-3.78942 V 91.146817 l 2.07084,-2.058695 2.07084,-2.058695 3.968983,0.07377 3.968983,0.07377 0.06825,17.721233 0.06825,17.72124 H 52.03728 45.929204 Z M 117.66112,85.698841 c -2.92439,-0.575742 -4.84778,-2.588187 -5.04218,-5.27562 -0.1606,-2.220363 0.57159,-3.664779 2.56135,-5.052829 0.82562,-0.57595 1.77587,-1.241473 2.11168,-1.478939 l 0.61055,-0.431758 -1.05629,-1.145942 c -2.14188,-2.323665 -2.70477,-4.657408 -1.631,-6.762168 1.56845,-3.074412 6.28623,-3.601981 8.97132,-1.003222 1.39166,1.346925 1.65936,3.356404 0.70135,5.264739 -0.43272,0.861961 -2.04223,2.486628 -3.05769,3.086473 -0.42254,0.249604 -0.76826,0.542749 -0.76826,0.651433 0,0.108684 0.62661,0.769872 1.39247,1.469308 0.76586,0.699435 2.24027,2.079923 3.27645,3.067751 l 1.88398,1.79605 0.42571,-0.99959 c 0.23413,-0.549774 0.7011,-1.895608 1.0377,-2.99074 0.51532,-1.676596 0.71121,-2.005187 1.23997,-2.08 0.34538,-0.04887 0.72961,0.01279 0.85384,0.137028 0.34069,0.340683 -0.46951,3.158725 -1.53187,5.328193 l -0.94267,1.925044 1.02734,1.205625 c 1.33329,1.564667 2.22203,2.796929 2.22203,3.080893 0,0.124424 -0.35389,0.226226 -0.78642,0.226226 -0.57774,0 -1.21997,-0.386847 -2.42023,-1.457818 l -1.63381,-1.457818 -0.80346,0.676064 c -1.15534,0.972156 -3.03362,1.862157 -4.65676,2.206551 -1.58567,0.336445 -2.33826,0.339291 -3.9851,0.01507 z m 5.65746,-2.20614 c 0.73009,-0.344293 1.60413,-0.926699 1.94231,-1.294235 l 0.61487,-0.668248 -3.39074,-3.349189 c -1.86491,-1.842054 -3.47003,-3.349189 -3.56692,-3.349189 -0.48024,0 -2.89103,2.23164 -3.26724,3.024435 -0.62463,1.316323 -0.55266,3.083582 0.16987,4.170817 1.36332,2.051498 4.82187,2.727541 7.49785,1.465609 z m -1.84681,-12.438063 c 1.54703,-1.834716 1.85574,-3.768549 0.84231,-5.276458 -0.98121,-1.459976 -3.22159,-1.720245 -4.42749,-0.514349 -1.40469,1.404697 -1.10441,3.593339 0.8061,5.87523 1.22276,1.460451 1.48312,1.452541 2.77908,-0.08442 z"
         id="path11" /></g></g></svg>
