<?xml version="1.0" encoding="UTF-8" standalone="no"?>
<!-- Created with Inkscape (http://www.inkscape.org/) -->

<svg
   width="209.46664mm"
   height="159.35222mm"
   viewBox="0 0 209.46664 159.35222"
   version="1.1"
   id="svg1"
   xml:space="preserve"
   xmlns="http://www.w3.org/2000/svg"
   xmlns:svg="http://www.w3.org/2000/svg"><defs
     id="defs1" /><g
     id="layer1"
     transform="translate(0.43369925,-90.272046)"><path
       id="path2"
       style="fill:#ffffff;fill-opacity:1;stroke-width:1.91439"
       d="M 81.843088,90.273031 C 76.475222,90.237006 74.31489,91.157664 66.32564,96.880797 52.490154,106.79188 11.584433,139.81774 6.9964437,144.78098 c -1.7788068,1.92429 -4.2729884,9.75764 -5.5209349,17.33937 -2.23176465,13.55881 -2.5428927,37.12606 -0.74327997,56.33791 1.79137307,19.12388 5.43036227,25.03474 17.26037817,28.03845 4.255543,1.08051 13.72771,2.31345 21.732973,2.82868 9.087205,0.58487 73.87182,0.24405 84.09093,-0.44224 33.65665,-2.26027 37.71406,-4.84869 40.19175,-25.64413 1.39352,-11.69655 1.9582,-30.51945 1.30371,-43.4858 -1.15673,-22.91571 -2.84993,-30.25734 -8.25458,-35.79268 l -2.20598,-2.25937 2.03507,-0.3595 c 3.53907,-0.62539 13.58774,-0.43182 17.2246,0.33192 13.33828,2.80103 20.04322,12.17576 17.43628,24.37753 -1.49935,7.01765 -5.1902,13.07348 -12.11508,19.87749 -2.23047,2.19153 -3.97574,4.33448 -3.97574,4.88121 0,1.46157 1.43779,2.653 2.7247,2.2584 6.48783,-1.98931 16.96298,-10.14746 21.98935,-17.12563 3.10528,-4.31111 6.64148,-11.83713 7.90677,-16.82919 1.50404,-5.93399 1.20507,-14.27323 -0.70253,-19.61843 -2.65907,-7.45081 -7.32571,-13.14922 -14.29818,-17.45659 -6.72948,-4.15724 -13.5981,-5.90103 -23.15594,-5.87892 -9.38649,0.0217 -18.07697,2.00991 -29.70237,6.79392 -2.45175,1.0089 -4.74314,1.83389 -5.09265,1.83389 -0.34952,0 -2.6363,-1.59601 -5.08174,-3.54665 -3.29522,-2.62845 -4.44676,-3.85108 -4.44676,-4.72266 0,-0.64679 -0.49284,-1.79776 -1.09603,-2.55782 -0.9055,-1.14103 -1.38361,-1.3361 -2.74058,-1.11786 -1.49047,0.23975 -2.32387,-0.2753 -8.95117,-5.5293 C 103.93957,100.28113 93.020881,92.978789 89.075155,91.438177 86.901507,90.589471 85.07615,90.294758 81.843088,90.273031 Z m 0.18581,7.327747 v 9.52e-4 c 2.023453,0.07739 4.244639,0.809749 7.126739,2.240676 3.772629,1.873084 14.021103,9.176014 23.083393,16.449004 l 4.17945,3.3556 -2.58259,3.92192 c -3.29069,4.99629 -11.8805,19.77342 -12.90007,22.19202 -1.912767,4.53746 -0.78956,5.79839 9.59804,10.77788 4.50763,2.16079 10.71338,5.00394 13.79141,6.31822 3.07807,1.31429 5.78778,2.56403 6.02076,2.77645 0.53095,0.48406 -1.6248,2.45938 -16.19613,14.84852 -11.86091,10.08465 -21.02171,17.21021 -25.184058,19.58891 -2.929251,1.67408 -5.84402,2.2982 -8.305252,1.77777 -2.152869,-0.45525 -7.065138,-3.46028 -13.300529,-8.13636 -9.901693,-7.42556 -53.183228,-43.81785 -53.183228,-44.71793 0,-0.88283 5.960982,-5.99036 28.236666,-24.19434 14.990482,-12.25044 30.944739,-24.22471 34.729431,-26.06569 1.380567,-0.671531 2.674189,-1.051037 4.02941,-1.12575 0.282337,-0.01525 0.567495,-0.01715 0.856558,-0.0077 z m 39.775372,21.749782 c 0.0764,0.078 0.50231,3.09184 0.946,6.6974 1.1209,9.10845 1.44323,9.28431 9.59805,5.22594 9.39712,-4.67663 19.42772,-8.27689 28.09953,-10.08548 5.01772,-1.0465 16.05628,-0.78653 20.78499,0.4895 10.76783,2.90569 19.69819,10.90894 22.21691,19.91194 1.48383,5.30391 1.67691,8.80244 0.77308,13.99363 -0.98406,5.65195 -3.38342,11.72809 -6.33178,16.03139 -1.18437,1.72865 -3.50165,4.55052 -5.14929,6.27094 l -2.99599,3.12809 2.52696,-5.04276 c 3.03442,-6.05531 4.04333,-9.77197 4.04333,-14.89088 0,-11.76084 -7.18927,-20.16808 -20.09637,-23.50096 -5.69578,-1.47076 -17.49474,-1.26019 -25.70376,0.45797 -6.43904,1.34772 -17.59714,4.86604 -19.70386,6.21283 -1.73308,1.10793 -1.40572,2.40904 1.58097,6.29457 1.49881,1.94986 3.90273,5.5029 5.34206,7.89603 2.51282,4.178 3.1959,6.18427 2.10562,6.18427 -2.0463,0 -34.01064,-14.79377 -34.84072,-16.12498 -0.49107,-0.78756 4.97662,-10.88999 11.17204,-20.64274 3.02137,-4.75619 5.5559,-8.58465 5.63223,-8.5067 z m 23.8893,24.18353 2.41664,2.33225 c 1.32918,1.2825 2.41665,2.59625 2.41665,2.91928 0,0.32302 -1.90996,2.30626 -4.24504,4.40749 l -4.24602,3.82047 -3.35272,-4.89304 c -1.85914,-2.71313 -3.16046,-5.0873 -2.92045,-5.32935 0.23805,-0.24008 2.57011,-1.07122 5.18209,-1.84672 z m -135.037378,12.34782 2.142394,2.02892 c 2.352335,2.22842 13.552515,11.69125 30.244913,25.55254 5.942561,4.93468 10.939052,9.18752 11.10348,9.45121 0.164427,0.26368 -1.487489,2.11898 -3.670686,4.12284 -10.727525,9.84626 -28.967238,27.04634 -33.491295,31.58217 -2.792978,2.80025 -5.245112,5.09099 -5.44939,5.09099 -1.9532793,0 -4.4914705,-23.52221 -4.4735874,-41.45687 0.014229,-14.34312 1.4815795,-30.86531 3.1211754,-35.13967 z m 144.231978,0.64117 c 0.13345,0.004 0.22397,0.0624 0.28319,0.16754 0.72266,1.27992 1.91062,11.92698 2.51702,22.5584 0.93298,16.35677 -0.31539,41.73027 -2.46932,50.19109 -0.482,1.89339 -1.10538,3.50264 -1.3852,3.5762 -0.27981,0.0735 -4.74427,-3.95853 -9.921,-8.95972 -5.17671,-5.00119 -14.67796,-13.8653 -21.11389,-19.69823 -6.4359,-5.83294 -11.76739,-10.77451 -11.84777,-10.98077 -0.0806,-0.20628 2.09453,-2.28851 4.83332,-4.62811 20.48452,-17.49872 23.0716,-19.58594 24.2788,-19.58594 2.63863,0 4.86709,-1.95025 4.86709,-4.25875 0,-0.37469 2.21203,-2.53947 4.91577,-4.81031 3.08497,-2.59105 4.46403,-3.58845 5.04199,-3.57129 z m -94.290162,41.35741 1.637601,1.23805 c 4.883222,3.69171 10.038018,7.14747 12.739093,8.54016 2.753452,1.41962 3.504164,1.57519 7.65538,1.58472 4.306866,0.009 4.845642,-0.11112 8.394684,-1.87133 2.085843,-1.03447 6.060517,-3.57943 8.832905,-5.65535 l 5.040969,-3.77419 5.09266,4.64681 c 24.64546,22.48772 37.73641,35.10712 37.08747,35.75033 -1.29961,1.28813 -12.50259,2.64528 -28.34995,3.43536 -13.93576,0.69488 -57.885111,1.0235 -69.701326,0.52101 -15.409061,-0.65524 -28.169911,-2.10758 -30.663256,-3.48855 -0.767041,-0.42485 15.5895,-16.57851 31.61521,-31.22365 z" /></g></svg>
