<?xml version="1.0" encoding="UTF-8" standalone="no"?>
<!-- Created with Inkscape (http://www.inkscape.org/) -->

<svg
   width="210mm"
   height="210.10799mm"
   viewBox="0 0 210 210.10799"
   version="1.1"
   id="svg1"
   xml:space="preserve"
   xmlns="http://www.w3.org/2000/svg"
   xmlns:svg="http://www.w3.org/2000/svg"><defs
     id="defs1" /><g
     id="layer1"
     transform="translate(0,-49.75084)"><path
       style="fill:#ffffff;fill-opacity:1;stroke-width:1.70631"
       d="m 29.884211,259.4185 c -0.508091,-0.21866 -1.344677,-0.96749 -1.859081,-1.66406 l -0.935279,-1.26652 v -56.3153 -56.31531 H 15.257492 c -12.5540157,0 -13.7757088,-0.18967 -14.83796264,-2.30386 -0.60288766,-1.1999 -0.54716377,-3.34885 0.11030702,-4.25369 0.29308236,-0.40336 5.84766352,-5.21644 12.34351262,-10.69574 6.49585,-5.47932 17.223845,-14.58495 23.839989,-20.23476 6.616143,-5.64979 20.58894,-17.505525 31.050662,-26.346082 10.461721,-8.840546 22.764467,-19.268582 27.339436,-23.173403 7.167594,-6.117669 8.529894,-7.099572 9.849134,-7.098937 1.33866,6.46e-4 3.0208,1.273136 13.38879,10.128252 6.52177,5.570134 17.44662,14.861465 24.27742,20.647382 49.42711,41.866468 60.05261,50.857278 63.0154,53.320768 4.6823,3.89317 5.44334,6.07024 3.02318,8.64812 l -1.27865,1.36195 h -12.2817 -12.28173 v 55.84268 c 0,40.46419 -0.13672,56.26057 -0.49662,57.36013 -0.98032,2.99537 3.95333,2.81797 -77.4614,2.78549 -40.727082,-0.0158 -74.464952,-0.20844 -74.973044,-0.42711 z M 174.94152,195.32 c 0,-60.06363 -0.068,-58.11077 2.06162,-59.20714 0.42993,-0.22134 4.61623,-0.50885 9.30293,-0.63889 l 8.52123,-0.23645 -17.05115,-14.46579 C 168.39802,112.81552 148.17471,95.660668 132.83544,82.64981 L 104.94587,58.993721 99.809402,63.318767 C 89.288761,72.177434 55.945857,100.44759 35.83847,117.55724 l -20.777971,17.68028 8.676225,0.23296 8.676225,0.23298 1.27533,1.52165 1.275331,1.52162 v 56.3708 56.37079 h 69.98896 69.98895 z"
       id="path1" /></g></svg>
