<?xml version="1.0" encoding="UTF-8" standalone="no"?>
<!-- Created with Inkscape (http://www.inkscape.org/) -->

<svg
   width="210mm"
   height="211.91774mm"
   viewBox="0 0 210 211.91774"
   version="1.1"
   id="svg1"
   xml:space="preserve"
   xmlns="http://www.w3.org/2000/svg"
   xmlns:svg="http://www.w3.org/2000/svg"><defs
     id="defs1" /><g
     id="layer1"
     transform="translate(0,-44.933805)"><g
       id="g30"
       transform="translate(0.78148208,2.0773446)"><path
         style="fill:#000000;stroke-width:2.17703"
         d="M 92.293146,254.42024 C 77.699533,252.65931 61.421199,246.94601 49.209769,239.29907 22.338148,222.47171 3.9300309,193.9217 -0.10967103,162.8072 -0.90631134,156.67135 -1.0165906,143.07586 -0.32147363,136.69456 1.7093974,118.05056 9.0060196,99.555786 20.235811,84.587965 37.450592,61.642963 62.056452,47.252598 90.436206,43.532339 c 6.856654,-0.898827 20.479194,-0.901641 27.393914,-0.0056 25.68772,3.328522 50.06737,16.526376 66.27977,35.880398 13.48801,16.10167 21.66301,34.716683 24.52896,55.854103 0.85161,6.28093 0.74691,20.94624 -0.19593,27.45725 -2.75571,19.02811 -10.36064,36.89173 -21.99205,51.65842 -10.25493,13.01919 -22.24882,22.81287 -36.56428,29.85684 -9.92581,4.88404 -18.07511,7.52368 -29.01989,9.39987 -6.18709,1.06059 -22.566182,1.51156 -28.573434,0.78668 z M 108.34425,242.8653 c 2.56485,-1.24601 5.97924,-4.36726 8.12629,-7.42867 l 1.84028,-2.62398 h -14.45993 c -7.952968,0 -14.456858,0.1003 -14.453099,0.22323 0.0037,0.12281 0.98097,1.54347 2.171569,3.1571 5.230829,7.08937 11.10601,9.42625 16.77489,6.67232 z m -27.575656,-5.07941 c -1.764742,-2.78966 -3.443832,-5.47367 -3.731313,-5.96448 -0.334275,-0.57071 -1.219416,-1.00171 -2.455528,-1.19562 -9.368183,-1.46973 -25.73504,-7.25798 -34.447742,-12.18269 -3.365545,-1.90233 -2.668868,-1.01469 2.825322,3.59973 10.534106,8.84734 22.203721,15.20054 35.270327,19.20197 2.82386,0.86479 5.272274,1.5815 5.440923,1.59276 0.168655,0.0109 -1.137243,-2.26202 -2.901989,-5.05167 z m 51.377596,2.45041 c 10.22636,-3.38127 18.21272,-7.24858 25.9998,-12.59009 4.07538,-2.7955 11.55663,-8.90212 11.58853,-9.45919 0.0109,-0.18636 -1.93943,0.64071 -4.33358,1.83805 -8.20201,4.10193 -20.18049,8.1754 -29.66493,10.08805 l -4.86678,0.98143 -2.13522,3.80899 c -1.17438,2.09496 -2.53817,4.39015 -3.03068,5.10043 -1.50491,2.17042 -1.58751,2.40757 -0.83846,2.40757 0.3864,0 3.663,-0.97886 7.28132,-2.17524 z m -9.84354,-18.18566 c 1.87973,-0.2668 1.88456,-0.27243 3.22791,-3.75586 0.73995,-1.91877 1.86098,-5.26349 2.49115,-7.43273 1.0758,-3.70319 4.22958,-17.02549 4.22958,-17.86676 0,-0.2114 -2.05929,-0.13265 -4.57621,0.17524 -10.85019,1.32705 -38.521208,1.17856 -49.110573,-0.26352 -1.668096,-0.22718 -2.567146,-0.19092 -2.567146,0.10344 0,0.24911 0.724457,3.58068 1.609904,7.40346 1.673277,7.22412 2.935026,11.55614 5.164461,17.73142 l 1.31325,3.63752 4.550544,0.45461 c 4.571711,0.45672 30.13242,0.31487 33.66713,-0.18679 z m -50.94938,-4.47352 c -1.335239,-3.48233 -2.528718,-8.24265 -4.298329,-17.14438 -0.995356,-5.00697 -1.861861,-9.1557 -1.925572,-9.21941 -0.0637,-0.0639 -3.085927,-0.73348 -6.716035,-1.48841 C 38.69241,185.62377 22.6664,179.07187 13.357388,171.30471 l -2.144663,-1.78942 0.286505,1.28939 c 4.237362,19.07019 21.321234,36.0533 44.407439,44.14551 4.419355,1.54908 15.696607,4.70024 15.97962,4.46512 0.07167,-0.0595 -0.168197,-0.88672 -0.533019,-1.83819 z m 72.58331,0.0175 c 24.00033,-6.829 40.08857,-18.54205 48.52443,-35.32833 1.66525,-3.3136 4.0805,-10.42638 4.0805,-12.01677 0,-0.36045 -1.24828,0.40009 -2.92015,1.77911 -7.9969,6.59623 -23.76867,13.19717 -40.60967,16.99635 -3.92885,0.8863 -7.74294,1.76578 -8.47573,1.9544 -1.18093,0.30395 -1.38999,0.62034 -1.83922,2.78376 -2.58578,12.45264 -4.81195,21.42153 -6.2422,25.14866 -0.35074,0.91402 -0.37377,0.91808 7.48204,-1.31718 z m -26.41843,-34.11343 c 3.56049,-0.23698 8.70926,-0.66471 11.44168,-0.95053 l 4.96805,-0.51966 0.50318,-3.84229 c 0.8298,-6.33644 1.39116,-13.42475 1.39155,-17.57095 l 3.7e-4,-3.90652 H 104.12434 72.425682 l 0.0131,2.79038 c 0.01741,3.73098 0.732044,13.43119 1.360931,18.47291 l 0.508252,4.07461 5.556085,0.5463 c 13.548947,1.33226 26.54793,1.64494 37.65417,0.90575 z m -54.429262,-8.99036 c -0.247947,-3.03707 -0.586144,-8.28441 -0.751545,-11.66077 l -0.300732,-6.13882 H 37.958137 13.879661 l 1.623643,1.98144 c 6.068542,7.40586 17.876819,13.72751 34.376154,18.40352 4.137199,1.17249 13.290286,3.23137 13.527021,3.04271 0.07328,-0.0584 -0.06964,-2.59102 -0.317591,-5.62808 z m 88.583412,4.28224 c 6.9567,-1.52988 18.74463,-5.42057 24.07866,-7.94733 6.14279,-2.90988 12.06772,-6.92965 15.86833,-10.76593 l 3.33729,-3.36857 h -24.3526 -24.35258 l -0.55113,8.81758 c -0.30313,4.84966 -0.66979,10.19657 -0.81482,11.88198 -0.24615,2.86064 -0.20746,3.04763 0.58284,2.81243 0.46558,-0.13869 3.2574,-0.78214 6.20401,-1.43016 z m -89.508409,-36.0337 c 0.0037,-2.0258 0.303177,-8.10325 0.66543,-13.50542 0.362255,-5.40214 0.660564,-9.95191 0.662906,-10.11055 0.0025,-0.1587 -2.255944,0.19789 -5.018415,0.79252 -14.423436,3.10427 -26.520067,7.6505 -34.935482,13.12972 -4.044124,2.6331 -10.201416,8.65253 -11.748139,11.48508 l -1.033102,1.89194 h 25.700006 25.700012 z m 73.520209,-4.01815 c -0.23611,-6.50535 -1.44651,-20.82035 -1.78946,-21.1633 -0.0579,-0.0579 -1.80752,-0.31468 -3.88794,-0.57054 -6.8169,-0.83832 -24.58698,-1.4387 -33.695404,-1.13843 -8.206434,0.27055 -21.506395,1.25808 -21.872379,1.62407 -0.607838,0.60784 -2.006873,18.3393 -2.01116,25.48959 l -0.002,3.46005 h 31.768933 31.76896 z m 61.75035,7.31729 c 0,-0.5728 -2.0768,-3.55028 -4.31106,-6.1807 -5.6687,-6.67388 -17.66054,-12.99975 -32.87135,-17.34013 -5.8454,-1.66797 -14.9739,-3.55739 -15.35344,-3.17785 -0.12691,0.12691 -0.0136,2.60945 0.25153,5.51669 0.26529,2.90722 0.59629,8.29596 0.73555,11.97501 0.13933,3.67903 0.35212,7.34209 0.47301,8.14015 l 0.2198,1.45098 h 25.42797 c 13.9854,0 25.42799,-0.17285 25.42799,-0.38415 z M 21.255403,122.36516 c 10.404668,-5.76361 22.22598,-9.82392 37.744739,-12.96441 l 5.995462,-1.21328 1.047785,-5.77253 c 1.233488,-6.795655 3.491256,-16.382095 4.662685,-19.797674 0.455949,-1.329441 0.767091,-2.479081 0.691422,-2.554751 -0.07567,-0.0757 -2.33639,0.439991 -5.02383,1.14591 -17.164295,4.50863 -32.968493,13.23641 -42.553497,23.499945 -3.833577,4.10495 -8.365417,10.80875 -10.241512,15.14992 -1.2232,2.83042 -2.764434,7.89445 -2.764434,9.08311 0,0.25934 1.433794,-0.60713 3.186205,-1.92544 1.752415,-1.31832 5.017154,-3.41119 7.254975,-4.6508 z m 175.581777,3.67066 c -1.65117,-6.43425 -4.8913,-12.47471 -9.99379,-18.63104 C 179.13623,98.105825 162.9813,87.663555 149.44,83.227855 c -5.95614,-1.951049 -12.72409,-3.79764 -12.72409,-3.47169 0,0.13095 0.49804,1.874391 1.10675,3.874321 1.41799,4.658719 3.07973,12.177639 4.0105,18.146194 1.00942,6.47287 1.03117,6.51136 3.88548,6.87638 4.69601,0.60056 16.35798,3.52295 23.78655,5.96074 8.83625,2.89974 19.78971,8.17937 24.58079,11.84808 1.7189,1.3162 3.19155,2.3451 3.27257,2.28642 0.0809,-0.0585 -0.15348,-1.27929 -0.52137,-2.71248 z M 88.498236,105.7462 c 8.072212,-0.59467 32.309814,-0.27623 38.983794,0.51221 2.41074,0.28479 4.49843,0.40255 4.63929,0.26166 0.81863,-0.81862 -3.24374,-17.979315 -5.89581,-24.905715 l -1.65139,-4.312999 -4.75575,-0.374831 c -11.02125,-0.86865 -35.579658,-0.0852 -36.842931,1.17532 -0.808051,0.80629 -4.333707,13.19214 -5.848114,20.544791 -0.867033,4.209564 -1.576425,7.769744 -1.576425,7.911524 0,0.1418 1.356123,0.13182 3.013607,-0.0222 1.657479,-0.15399 6.127659,-0.5094 9.933729,-0.78979 z M 51.545174,75.049955 c 5.723691,-2.131987 16.444904,-5.23831 21.773429,-6.308552 l 2.455527,-0.493195 3.649236,-6.494978 3.649236,-6.494974 -1.640166,0.294937 c -3.611366,0.649402 -13.948654,4.430635 -19.179993,7.01577 -9.081845,4.487913 -19.198077,11.705212 -24.863119,17.738283 l -1.328639,1.414949 4.728076,-2.21339 c 2.600439,-1.21736 7.440826,-3.22385 10.756413,-4.45885 z m 119.491176,5.891701 c -0.337,-0.409381 -2.68102,-2.613931 -5.20894,-4.899 -5.76534,-5.211489 -12.34723,-9.631553 -19.89155,-13.358095 -5.69539,-2.813277 -16.0568,-6.548118 -19.84802,-7.15436 l -1.87073,-0.299139 3.55167,5.91559 c 1.95342,3.253571 3.6158,6.107991 3.69419,6.34315 0.0784,0.23516 2.74893,1.011828 5.93457,1.725932 10.42683,2.337323 22.31781,6.495541 30.42423,10.639221 4.05703,2.073801 4.01567,2.05982 3.21458,1.086701 z M 119.7503,66.114233 c 7.4e-4,-0.94453 -3.4698,-5.815329 -5.85022,-8.210618 -3.68552,-3.708534 -6.21212,-4.939494 -10.22222,-4.980276 -3.65628,-0.03719 -6.455264,1.24471 -9.625749,4.408491 -1.818135,1.814274 -6.000054,7.915296 -6.00042,8.754027 -4.6e-5,0.108487 7.13208,0.19726 15.849189,0.19726 8.7171,0 15.84934,-0.07599 15.84942,-0.168894 z"
         id="path2" /></g></g></svg>
