<?xml version="1.0" encoding="UTF-8" standalone="no"?>
<!-- Created with Inkscape (http://www.inkscape.org/) -->

<svg
   width="208.97787mm"
   height="73.277802mm"
   viewBox="0 0 208.97787 73.277802"
   version="1.1"
   id="svg1"
   xml:space="preserve"
   xmlns="http://www.w3.org/2000/svg"
   xmlns:svg="http://www.w3.org/2000/svg"><defs
     id="defs1" /><g
     id="layer1"
     transform="translate(-0.51102164,-111.86132)"><g
       id="g3"
       transform="translate(0.27039146,73.288233)"><g
         id="g30"
         transform="translate(0,-69.270352)"><path
           id="path4"
           style="fill:#47483c"
           d="m 33.029385,107.84351 c -28.2931868,-10e-4 -28.4308252,0.001 -29.5677045,0.55139 -1.4092497,0.6822 -2.57933381,2.06158 -2.97707928,3.50986 -0.21883311,0.79682 -0.28013458,9.08433 -0.22479248,30.33303 0.0754807,28.98096 0.0807322,29.24573 0.62373453,30.28084 0.71110863,1.35557 2.18111523,2.52944 3.62665203,2.89646 0.8115931,0.20602 9.4192817,0.27585 29.1801307,0.23565 31.50118,-0.064 29.402496,0.0746 31.284912,-2.06396 0.55914,-0.63522 1.156433,-1.62246 1.327568,-2.19366 0.429867,-1.43476 0.443976,-57.9001 0.01499,-59.45012 -0.388743,-1.40423 -2.400699,-3.4162 -3.804936,-3.80494 -0.743503,-0.20586 -9.514036,-0.29355 -29.483471,-0.29455 z m 70.901615,1.32136 -0.57206,1.12138 c -0.47058,0.92241 -2.62634,5.867 -6.115387,14.02602 -0.595219,1.39189 -0.86068,1.55166 -1.097607,0.66146 -0.08714,-0.32742 -1.565632,-3.9886 -3.286105,-8.13594 l -3.128491,-7.54062 -3.356384,-0.0739 c -3.112845,-0.0687 -3.356901,-0.0387 -3.356901,0.41393 0,0.29789 0.363372,0.66148 0.932243,0.93276 1.356339,0.64679 1.526294,1.34417 1.335835,5.47408 -0.326497,7.07972 -0.749931,12.05518 -1.099157,12.90826 -0.236962,0.57884 -0.669031,0.99961 -1.291911,1.25987 -0.920318,0.38453 -1.114381,0.64572 -0.751375,1.00872 0.103699,0.10107 1.730063,0.15044 3.616316,0.11007 3.833249,-0.0821 4.392833,-0.36263 2.442745,-1.22524 -0.870135,-0.3849 -1.245581,-0.72521 -1.37666,-1.24747 -0.341939,-1.36239 0.303048,-14.65526 0.68988,-14.21826 0.103943,0.11742 1.288273,2.83281 2.631881,6.03426 4.473854,10.66003 4.500809,10.71562 5.16971,10.71562 0.33014,0 0.712133,-0.14882 0.849044,-0.33072 0.136912,-0.1819 1.889729,-4.20026 3.894854,-8.92969 2.00511,-4.72942 3.73332,-8.69255 3.84059,-8.8067 0.31504,-0.33517 0.35454,14.1705 0.0424,15.33188 -0.18666,0.69318 -0.53618,1.18 -1.07642,1.49913 -0.43994,0.25988 -0.79996,0.64417 -0.79996,0.85422 0,0.31582 0.68644,0.38188 3.96875,0.38188 3.32066,0 3.96875,-0.0638 3.96875,-0.39015 0,-0.21454 -0.35374,-0.57281 -0.78599,-0.79634 -0.43225,-0.22352 -0.90851,-0.63573 -1.05834,-0.9157 -0.29186,-0.54535 -0.39736,-17.10776 -0.11369,-17.84698 0.0872,-0.22724 0.56345,-0.66307 1.05834,-0.96893 1.67653,-1.03615 1.23366,-1.3069 -2.13786,-1.3069 z m 34.91363,0 c -2.32833,0 -4.23333,0.0539 -4.23333,0.11989 0,0.066 0.53578,0.6484 1.19062,1.29398 l 1.19063,1.17357 -0.001,10.41435 c -0.002,10.83066 -0.10075,11.98 -1.11931,12.92893 -0.75398,0.70244 -1.41734,0.66505 -2.36678,-0.13384 -1.31003,-1.10232 -2.59777,-0.76413 -2.59777,0.68213 0,0.82728 0.41282,1.22655 1.78284,1.72392 h 5.1e-4 c 2.58937,0.93955 5.86081,-0.8776 7.25537,-4.03024 0.79595,-1.79939 0.99766,-4.4646 1.00666,-13.27619 0.005,-4.78108 0.11619,-8.48634 0.26303,-8.76071 0.13996,-0.26152 0.61622,-0.62559 1.05834,-0.80873 0.49201,-0.20379 0.80356,-0.5257 0.80356,-0.82993 0,-0.46567 -0.26751,-0.49713 -4.23333,-0.49713 z m -15.47761,0.66146 0.005,0.005 5.2e-4,-5.2e-4 z m 0.14935,0.17674 0.008,0.009 5.2e-4,-5.2e-4 z m 0.0129,0.0124 -5.2e-4,5.2e-4 v 5.1e-4 l 0.009,0.0119 5.1e-4,-5.2e-4 h 5.2e-4 l 5.2e-4,-5.2e-4 h 5.1e-4 l 5.2e-4,-5.1e-4 -5.2e-4,-5.2e-4 -5.1e-4,-5.2e-4 -5.2e-4,-5.1e-4 h -5.2e-4 v -5.2e-4 l -0.005,-0.005 c -0.001,-9.3e-4 -0.002,-0.002 -0.003,-0.003 l -5.2e-4,-10e-4 z m 0.0977,0.0315 -5.2e-4,5.2e-4 c 0.008,0.006 0.0153,0.012 0.0227,0.0181 z m -0.0341,0.0444 -5.2e-4,5.2e-4 v 5.2e-4 l 0.003,0.002 v -5.1e-4 l -5.1e-4,-5.2e-4 v -5.2e-4 l -5.2e-4,-5.1e-4 -5.2e-4,-5.2e-4 z m 0.0227,0.0284 0.0331,0.0377 c -0.004,-0.006 -0.007,-0.013 -0.0114,-0.0191 -0.007,-0.007 -0.0145,-0.0125 -0.0217,-0.0186 z m 0.19585,0.23151 -5.2e-4,5.1e-4 0.002,0.002 z m 0.005,0.005 h 5.1e-4 z m 0.002,5.2e-4 0.002,0.005 h 5.1e-4 v 5.2e-4 h 5.2e-4 v 5.1e-4 l 5.2e-4,5.2e-4 h 5.1e-4 l 5.2e-4,5.2e-4 h 5.2e-4 5.1e-4 v -5.2e-4 l -5.1e-4,-5.2e-4 c -6.3e-4,-0.001 -0.002,-0.003 -0.003,-0.004 l -5.1e-4,-5.2e-4 v -5.1e-4 h -5.2e-4 l -5.2e-4,-5.2e-4 z m 0.15761,0.18759 0.003,0.002 v -5.2e-4 z m 0.0274,0.0279 v 5.2e-4 h 5.1e-4 v -5.2e-4 z m 0.15089,0.15503 0.002,5.2e-4 v -5.2e-4 z m 0.0961,0.0951 -5.2e-4,5.2e-4 -5.1e-4,5.2e-4 v 5.1e-4 5.2e-4 h -5.2e-4 l -5.2e-4,5.2e-4 -5.1e-4,5.2e-4 c 0.007,0.007 0.0147,0.0128 0.0212,0.0186 -0.0104,-0.011 -0.01,-0.0116 -0.0186,-0.0217 z m 0.046,0.0527 0.009,0.009 c -0.002,-0.003 -0.005,-0.006 -0.007,-0.009 h -5.2e-4 -5.1e-4 z m 0.0367,0.0372 c 0.004,0.004 0.0118,0.0153 0.0155,0.0186 l -0.005,-0.008 v -5.2e-4 l -5.2e-4,-5.2e-4 -0.001,-5.1e-4 v -5.2e-4 h -5.2e-4 v -5.2e-4 h -10e-4 v -5.1e-4 c -0.002,-0.003 -0.003,-0.005 -0.005,-0.007 h -5.2e-4 -5.1e-4 -5.2e-4 z M 5.1907739,111.28206 H 33.25211 61.313963 l 0.86403,0.77204 0.86403,0.77205 0.07028,28.39827 c 0.0517,20.90478 -0.01008,28.59193 -0.233577,29.13259 -0.166984,0.40396 -0.633718,0.96951 -1.037146,1.25677 -0.719523,0.5124 -1.264619,0.52196 -28.606006,0.50436 -17.918433,-0.0115 -28.0663145,-0.11181 -28.4148034,-0.28112 -0.2981471,-0.14484 -0.6793202,-0.48292 -0.8469767,-0.75138 -0.2244647,-0.35942 -0.3143122,-7.90613 -0.3415812,-28.62461 -0.02037,-15.475 -0.026148,-28.47265 -0.012919,-28.88402 0.014498,-0.45086 0.3311776,-1.05517 0.7973673,-1.52136 z m 109.2672361,2.37401 c 0,0.004 7.3e-4,0.0122 0.002,0.0227 5.9e-4,0.003 0.001,0.007 0.002,0.0103 -9.4e-4,-0.0108 -0.002,-0.0218 -0.003,-0.0326 z m 0.0119,0.1819 c 0,0.009 -1.6e-4,0.0183 -5.2e-4,0.0274 2.2e-4,0.009 3.1e-4,0.018 5.2e-4,0.0269 1.6e-4,0.0172 3.8e-4,0.035 5.2e-4,0.0522 0.001,-0.0346 1.6e-4,-0.0707 -5.2e-4,-0.10646 z m -56.430146,3.77135 c -0.06021,-0.0607 -2.342307,-0.0506 -5.071525,0.0222 -3.409224,0.0909 -4.994213,0.22798 -5.063773,0.4377 -0.05569,0.16789 0.748474,1.12486 1.786454,2.12649 l 1.887223,1.82107 -1.410766,1.29501 c -0.775863,0.71231 -4.209289,3.99474 -7.630025,7.29465 l -6.219776,6.00015 -2.643766,-1.49552 c -1.454212,-0.8225 -3.577417,-2.00537 -4.718058,-2.62826 l -2.073776,-1.13223 -9.10487,9.06973 -9.1048709,9.07025 v 2.52388 2.52387 l 9.3901249,-9.38754 9.390641,-9.38754 1.655713,0.89969 c 0.91081,0.49487 2.9786,1.65418 4.594551,2.57607 1.615952,0.92188 3.024716,1.67586 3.130559,1.67586 0.187387,0 4.083151,-3.74546 12.726871,-12.23594 2.33388,-2.2925 4.360974,-4.16822 4.505152,-4.16822 0.144177,0 1.029328,0.77391 1.966805,1.71979 0.937478,0.94589 1.797134,1.71979 1.910478,1.71979 0.206988,0 0.30183,-10.13446 0.09663,-10.34097 z m 64.535596,3.5941 0.50385,0.59531 c 0.47367,0.55943 0.68678,0.71558 0.68678,0.50384 0,-0.0502 -0.2679,-0.3181 -0.59532,-0.59531 z m 4.7625,7.9375 0.0222,0.0243 5.2e-4,-5.1e-4 h 5.1e-4 l 5.2e-4,-5.2e-4 5.2e-4,-5.2e-4 v -5.1e-4 h 5.1e-4 l 5.2e-4,-5.2e-4 z m 3.74447,2.55126 c -0.003,2.5e-4 -0.005,7.5e-4 -0.008,0.001 2e-4,5.3e-4 2.7e-4,9.8e-4 5.1e-4,0.002 h 5.2e-4 v 5.1e-4 h 5.2e-4 c 9.8e-4,-7e-5 0.003,-5.1e-4 0.004,-5.1e-4 h 5.2e-4 c 7.6e-4,-8.2e-4 0.001,-0.002 0.002,-0.003 z m -0.14882,0.0233 c -0.0163,0.004 -0.0323,0.009 -0.0476,0.0134 0.0149,-9.7e-4 0.0298,-7.5e-4 0.0434,-5.1e-4 0.001,-0.004 0.003,-0.009 0.004,-0.0129 z m -0.12248,0.0434 c -0.005,0.002 -0.009,0.005 -0.0129,0.007 0.002,3e-4 0.005,7.9e-4 0.007,10e-4 0.002,-0.003 0.004,-0.006 0.006,-0.008 z m 24.44037,6.24562 -0.59531,0.004 c -1.02558,0.007 -3.76701,0.97584 -3.84421,1.35909 -0.0405,0.20122 0.28688,0.57889 0.7276,0.83923 l 0.80151,0.47335 v 7.65018 7.64966 l -0.79375,0.58705 c -0.43652,0.32274 -0.79369,0.68332 -0.79375,0.8015 2.6e-4,0.29585 6.01836,0.27367 6.20168,-0.0238 0.0811,-0.13127 -0.26914,-0.48459 -0.77824,-0.78497 l -0.92553,-0.54622 v -9.00461 z m -65.497809,1.54409 c -1.590093,0.0262 -3.119991,0.316 -4.21628,0.86351 -1.615269,0.8067 -3.174807,2.42135 -4.040064,4.18321 -0.951894,1.93828 -1.151742,5.33348 -0.445967,7.57732 0.815715,2.59337 3.445969,4.92379 6.399609,5.66993 2.208606,0.55792 6.587235,-0.18904 7.587651,-1.29449 0.537167,-0.59356 0.892917,-3.82955 0.451135,-4.10259 -0.175665,-0.10856 -0.398152,0.0677 -0.537435,0.42581 -1.298109,3.33708 -4.736698,4.55488 -7.606771,2.69389 -2.172218,-1.40849 -3.125388,-3.85485 -2.950724,-7.57576 0.115752,-2.46589 0.636779,-4.03397 1.765267,-5.31647 1.189183,-1.35147 3.868674,-1.88923 5.665804,-1.13688 1.029512,0.431 2.759049,2.28634 2.990515,3.20858 0.34448,1.37252 0.639237,0.59219 0.639237,-1.69136 v -2.35903 l -1.124479,-0.42685 c -1.337182,-0.50741 -2.987406,-0.74503 -4.577498,-0.71882 z m 105.784759,0.0522 c -0.64904,-0.004 -1.34354,0.0601 -1.52549,0.19379 -0.44482,0.3268 -2.26247,4.05908 -2.10271,4.31757 0.0824,0.13329 0.21679,0.24236 0.29869,0.24236 0.24069,0 4.58215,-4.30621 4.58215,-4.54494 0,-0.13469 -0.6036,-0.20523 -1.25264,-0.20878 z m -33.90232,2.38332 c -0.004,-1.4e-4 -0.008,3.3e-4 -0.0124,5.2e-4 -0.24124,0.0107 -0.68429,0.54529 -1.46916,1.56528 -0.66733,0.86725 -1.5709,1.78789 -2.00763,2.04587 -0.94993,0.56112 -0.91742,1.24054 0.0667,1.35444 l 0.70849,0.0827 0.0827,4.59558 c 0.0754,4.17592 0.13365,4.66343 0.63614,5.33559 0.30416,0.40687 0.83994,0.82272 1.19062,0.92398 h 5.2e-4 c 1.76494,0.5096 4.73821,-0.68963 4.73821,-1.911 0,-0.43691 -0.0673,-0.44036 -1.04903,-0.0553 -0.95455,0.37498 -1.10706,0.37347 -1.69602,-0.0124 -0.55441,-0.36327 -0.67259,-0.70032 -0.82166,-2.35128 -0.0956,-1.06012 -0.1359,-2.93957 -0.0894,-4.17649 l 0.0842,-2.24896 1.5875,-0.13229 c 1.49712,-0.12476 1.59231,-0.17371 1.67121,-0.85989 l 0.0837,-0.72761 h -1.75648 -1.75649 l 0.0419,-1.38906 c 0.0412,-1.36843 0.0276,-2.03085 -0.23357,-2.03967 z m -21.20129,3.10679 -0.59532,0.13384 c -0.32742,0.0738 -1.39899,0.28739 -2.38125,0.47439 -0.98227,0.187 -1.78593,0.41493 -1.78593,0.50643 0,0.0915 0.35719,0.43016 0.79375,0.75292 l 0.79375,0.58705 v 3.83697 c 0,4.9507 0.38348,5.96617 2.44894,6.48384 1.2635,0.31668 2.73216,0.0584 3.91501,-0.68833 l 1.04438,-0.65939 v 0.67335 c 0,0.90048 0.31731,0.96815 2.64583,0.56637 2.22558,-0.38402 2.6055,-0.82835 1.32654,-1.55133 l -0.79737,-0.45061 v -5.30407 c 0,-2.91719 -0.0893,-5.3041 -0.19844,-5.30407 -0.50041,1.1e-4 -4.41401,0.81991 -4.54649,0.95239 -0.082,0.082 0.089,0.3138 0.37982,0.51522 1.19116,0.82486 1.18997,0.82262 1.18597,4.56199 -0.002,1.99517 -0.0915,3.75851 -0.19843,3.91863 -0.68456,1.02523 -2.4737,1.1576 -3.38119,0.25011 -0.64143,-0.64182 -0.64957,-0.70546 -0.64957,-5.45238 z m 54.23958,0 -0.59531,0.14624 c -0.32742,0.0804 -1.21841,0.2273 -1.97973,0.3266 -0.76133,0.0993 -1.58741,0.32926 -1.83606,0.51108 -0.40917,0.29919 -0.3734,0.37125 0.37569,0.75861 1.08561,0.56139 1.27429,1.78405 0.96221,6.22339 -0.23054,3.27948 -0.24575,3.33791 -0.9617,3.67936 -0.40018,0.19086 -0.7276,0.4598 -0.7276,0.59738 0,0.14331 1.36258,0.25011 3.1905,0.25011 3.37218,0 3.52205,-0.0785 2.17971,-1.14359 -0.59876,-0.47494 -0.60771,-0.56463 -0.60771,-5.91592 z m -91.28952,0.0253 c -1.50305,0.0674 -3.01621,0.66047 -4.238501,1.8774 -1.455554,1.44917 -1.949123,2.94115 -1.791622,5.41466 0.171185,2.68841 1.738748,4.60659 4.363043,5.33818 4.70822,1.31252 8.76437,-2.29095 8.18141,-7.26829 -0.37403,-3.19352 -3.02587,-5.20491 -5.87147,-5.35885 -0.21342,-0.0115 -0.42814,-0.0149 -0.64286,-0.003 z m 99.22754,0.005 c -1.52523,-0.0104 -3.19328,0.52159 -4.15531,1.48363 -0.66042,0.66042 -0.87229,1.10078 -0.87229,1.81487 0,1.96952 2.19232,1.80282 2.85408,-0.21704 0.45884,-1.40052 0.77817,-1.73168 1.67019,-1.73168 0.99921,0 1.65986,1.01752 1.67896,2.58641 l 0.0145,1.19941 -1.93166,0.61133 c -3.42513,1.08373 -4.81521,2.25853 -4.81521,4.06952 0,0.45184 0.714,2.36589 0.88987,2.38539 0.0198,0.002 0.51242,0.17984 1.0945,0.39429 1.33465,0.49171 2.64373,0.28921 3.79874,-0.58756 l 0.8878,-0.6749 0.56741,0.67386 c 0.31187,0.37053 0.80501,0.73982 1.09605,0.82062 0.58701,0.16298 2.45815,-0.20084 2.79156,-0.54312 0.42341,-0.43466 0.3735,-0.94441 -0.10025,-1.02371 -1.24652,-0.20849 -1.23618,-0.17297 -1.23661,-4.28035 -4.7e-4,-4.42518 -0.25256,-5.30285 -1.8247,-6.35311 -0.62875,-0.42004 -1.49246,-0.62164 -2.4076,-0.62786 z m -29.79302,0.004 c -1.63317,-0.029 -3.31278,0.57032 -4.65398,1.90583 -2.03632,2.02766 -2.4917,4.55373 -1.34255,7.44812 0.52663,1.32645 2.48242,3.01689 3.86591,3.3414 1.52644,0.35805 3.81079,0.0913 5.05551,-0.59014 2.37192,-1.29861 3.69817,-4.41758 3.07061,-7.22178 -0.68056,-3.04111 -3.27354,-4.83509 -5.9955,-4.88343 z m 14.93139,0.0119 c -0.71421,-0.0397 -1.57245,0.27881 -2.33577,0.96842 l -1.05937,0.95653 v -0.95653 c 0,-0.67001 -0.11801,-0.95705 -0.39326,-0.95705 -0.51662,0 -2.74025,0.52753 -3.56206,0.84491 l -0.6475,0.25011 0.84594,0.66249 0.84646,0.66198 v 4.20646 4.20594 l -0.79375,0.58705 c -0.43653,0.32274 -0.79369,0.68332 -0.79375,0.8015 1.1e-4,0.11812 1.36929,0.21497 3.04271,0.21497 1.6408,0 2.98963,-0.0697 3.04167,-0.15451 l 5.2e-4,-5.1e-4 v -5.2e-4 l 5.2e-4,-5.2e-4 v -5.2e-4 -5.1e-4 c 0,-0.0871 -0.35718,-0.49188 -0.79375,-0.89969 l -0.79375,-0.74156 v -3.51451 c 0,-3.2446 0.0441,-3.56211 0.57516,-4.1274 0.7139,-0.75987 1.20477,-0.77096 1.973,-0.0491 1.13354,1.06491 2.72458,-0.15336 2.31769,-1.77457 -0.18633,-0.74242 -0.7565,-1.14058 -1.47071,-1.18029 z m -57.17842,0.0124 c -2.66106,0 -4.42505,1.48292 -4.42505,3.72019 0,1.68384 0.72866,2.49355 3.57187,3.96823 2.26917,1.17695 2.50341,1.38932 2.50941,2.28048 0.006,0.92018 -0.69654,1.4087 -2.02985,1.4087 -1.04888,0 -1.32993,-0.13153 -2.19677,-1.02474 -0.54667,-0.56331 -1.04567,-1.17937 -1.10897,-1.36943 -0.26783,-0.80348 -0.74569,0.13672 -0.74569,1.46761 0,1.59965 0.0776,1.68408 1.97507,2.14509 0.7328,0.17804 1.39171,0.33267 1.46451,0.34417 0.0728,0.0115 0.83799,-0.0944 1.70067,-0.23565 1.20793,-0.19781 1.77179,-0.45328 2.45256,-1.11311 1.10465,-1.0709 1.5158,-2.44544 1.10071,-3.68143 -0.4465,-1.32952 -0.8166,-1.64723 -3.20911,-2.75332 -2.49537,-1.15365 -3.10316,-1.6008 -3.10316,-2.28668 0,-0.76748 0.96096,-1.54719 1.90789,-1.54719 0.69276,0 1.10825,0.27808 2.24896,1.50378 l 1.3994,1.50327 -0.004,-1.56993 c -0.002,-0.86328 -0.0999,-1.71972 -0.21704,-1.90428 -0.29686,-0.46771 -1.78729,-0.85576 -3.29076,-0.85576 z m -10.43296,0.0341 c -1.08714,-0.0574 -2.30491,0.2351 -3.22874,0.84646 l -1.0821,0.71623 v -0.6506 c 0,-0.35727 -0.1089,-0.71724 -0.24185,-0.79944 -0.31322,-0.19358 -3.77791,0.60367 -4.12378,0.94878 -0.17628,0.17588 -0.088,0.38806 0.26458,0.63459 1.19562,0.83585 1.19063,0.81661 1.19063,4.74183 0,2.09241 -0.0739,3.99724 -0.16433,4.23281 -0.0904,0.23556 -0.50711,0.60605 -0.92604,0.82269 -0.41893,0.21664 -0.76171,0.50986 -0.76171,0.65164 0,0.15239 1.24408,0.25787 3.0427,0.25787 3.23488,0 3.58194,-0.16142 2.38125,-1.10588 -0.64806,-0.50977 -0.66145,-0.5933 -0.66145,-4.146 0,-4.10376 0.1759,-4.60689 1.7632,-5.04517 0.72132,-0.19917 1.12948,-0.17349 1.67483,0.10852 1.14871,0.59403 1.37904,1.54789 1.28054,5.29529 -0.0867,3.29938 -0.10087,3.36709 -0.81597,3.93671 -0.40018,0.31877 -0.7276,0.66372 -0.7276,0.76739 0,0.1037 1.36921,0.18914 3.0427,0.18914 2.52824,0 3.04271,-0.0671 3.04271,-0.39688 0,-0.21829 -0.13962,-0.39687 -0.31006,-0.39687 -0.17044,0 -0.52763,-0.19739 -0.79375,-0.43822 -0.42745,-0.38683 -0.48369,-0.89707 -0.48369,-4.37441 0,-4.47514 -0.24998,-5.43795 -1.63762,-6.30866 -0.46683,-0.29292 -1.07217,-0.45335 -1.72445,-0.48782 z m -16.59278,1.28157 c 0.0613,-0.002 0.1225,3.7e-4 0.18397,0.003 0.44701,0.0262 0.89577,0.1995 1.31619,0.5302 1.99521,1.56943 2.27406,6.96569 0.45424,8.78551 -1.4396,1.43961 -3.78435,0.63171 -4.50515,-1.55236 -0.50707,-1.53643 -0.4383,-4.8186 0.12351,-5.90507 0.61115,-1.1819 1.50732,-1.83171 2.42724,-1.86087 z m 68.73792,0.008 c 2.01383,0 3.11276,1.51741 3.28766,4.53875 0.14432,2.49307 -0.28613,4.26833 -1.2113,4.99607 -1.04393,0.82116 -2.59127,0.69774 -3.5047,-0.28008 -1.17898,-1.26211 -1.6625,-4.42906 -1.02629,-6.72052 0.35897,-1.29293 1.56152,-2.53422 2.45463,-2.53422 z m 31.18001,5.31028 c 0.41977,0.005 0.47026,0.41394 0.47026,1.42161 0,1.12001 -0.13244,1.58881 -0.59532,2.10685 -1.27293,1.42461 -3.10885,0.96171 -3.10885,-0.78393 0,-1.05977 0.60898,-1.77437 2.01073,-2.36006 0.58675,-0.24516 0.97132,-0.3876 1.22318,-0.38447 z m -13.79089,11.81116 c -0.45024,0.008 -2.27498,0.64923 -2.54972,0.92397 -0.0916,0.0916 0.0899,0.4232 0.40308,0.73639 0.54825,0.54829 0.56715,0.76032 0.51005,5.71335 -0.0326,2.82929 0.015,5.21885 0.10593,5.30975 0.0909,0.0909 0.79431,0.32103 1.5627,0.5116 3.1963,0.79268 5.53472,-0.62854 6.01307,-3.65456 0.32238,-2.0394 -0.35699,-3.77423 -1.72186,-4.39611 -0.93107,-0.42422 -2.56012,-0.38148 -3.17448,0.0832 -0.28248,0.21365 -0.60296,0.39187 -0.7121,0.39687 -0.10914,0.005 -0.19844,-1.22221 -0.19844,-2.72593 0,-1.50372 -0.0656,-2.79921 -0.14573,-2.87941 -0.0139,-0.0139 -0.0459,-0.0199 -0.0925,-0.0191 z m -67.79534,0.0765 c -0.50045,0 -2.46074,0.60339 -2.73162,0.84078 -0.1542,0.13514 -0.0244,0.38326 0.33073,0.632 0.56883,0.39844 0.58446,0.5471 0.58446,5.54436 0,4.86427 -0.0279,5.15002 -0.52917,5.41828 -0.29104,0.15577 -0.52916,0.39807 -0.52916,0.53847 0,0.1427 0.93339,0.25528 2.11666,0.25528 2.10847,0 2.6059,-0.24871 1.5875,-0.79375 -0.50557,-0.27058 -0.52916,-0.55399 -0.52916,-6.3593 0,-4.35295 -0.0853,-6.07612 -0.30024,-6.07612 z m 77.54358,0 c -0.67472,0 -2.63084,0.61363 -2.63084,0.82527 0,0.12824 0.23812,0.47119 0.52916,0.76223 0.49081,0.49083 0.52903,0.87895 0.52503,5.35781 -0.002,2.65576 -0.0915,4.95621 -0.19843,5.11235 -0.10691,0.15613 -0.40267,0.36076 -0.65733,0.45476 -0.25466,0.094 -0.46301,0.29382 -0.46302,0.4439 3e-5,0.33184 4.13814,0.37728 4.34186,0.047 0.0768,-0.12424 -0.15443,-0.3598 -0.51367,-0.52348 l -0.65319,-0.29766 v -6.0911 c 0,-4.10397 -0.0911,-6.0911 -0.27957,-6.0911 z m -107.141778,1.06557 c -0.311245,0.0125 -0.64209,0.19256 -0.912606,0.57878 -0.515108,0.73542 -0.51373,0.85991 0.01809,1.39164 0.237948,0.23795 0.740376,0.39435 1.124479,0.34985 0.540246,-0.0626 0.713457,-0.24567 0.779797,-0.82424 0.106949,-0.93273 -0.415563,-1.51991 -1.009757,-1.49603 z m 56.280798,0.0176 c -0.3517,-0.006 -0.73958,0.003 -1.16633,0.0238 -1.60296,0.0766 -2.08075,0.21635 -3.04271,0.88935 -1.43645,1.00496 -2.58417,3.06956 -2.78433,5.009 -0.12533,1.21434 -0.0361,1.66959 0.56948,2.90731 0.83454,1.70574 2.06176,2.74142 3.80442,3.21066 0.68096,0.18335 1.50031,0.34088 1.82056,0.35088 1.03129,0.0316 3.2497,-0.54496 3.65455,-0.94981 0.40071,-0.40072 0.56828,-2.74535 0.19482,-2.72645 -0.10914,0.006 -0.52062,0.47574 -0.91415,1.0449 -1.27553,1.84478 -3.73716,1.99744 -5.29374,0.32815 -0.95953,-1.02902 -1.23257,-1.6621 -1.42575,-3.30575 -0.34468,-2.93271 1.14784,-5.42357 3.40238,-5.67769 1.52558,-0.17195 2.63107,0.40573 3.40186,1.77716 0.74447,1.32461 1.03539,1.34473 1.00149,0.0682 -0.0578,-2.17339 -0.7606,-2.9091 -3.22255,-2.94969 z m -59.192765,0.23719 -4.365625,5.2e-4 c -2.401093,0 -4.365625,0.10005 -4.365625,0.22221 0,0.12216 0.297656,0.35772 0.661458,0.52348 l 0.661458,0.30128 v 4.89117 c 0,4.62036 -0.0293,4.90684 -0.529166,5.17436 -0.291041,0.15577 -0.529167,0.39807 -0.529167,0.53847 0,0.14507 1.02803,0.25528 2.38125,0.25528 2.39997,0 3.035735,-0.29342 1.719792,-0.79375 -0.629708,-0.23941 -0.661459,-0.35322 -0.661459,-2.37453 v -2.12339 l 1.12448,0.004 c 1.247582,0.004 1.61033,0.17112 1.862935,0.85576 0.392941,1.06501 0.716752,0.37787 0.716752,-1.52135 0,-1.14653 -0.111712,-1.98438 -0.264583,-1.98438 -0.145521,0 -0.264584,0.11906 -0.264584,0.26458 0,0.63305 -1.088911,1.32292 -2.088244,1.32292 -1.279947,0 -1.402882,-0.27758 -1.180807,-2.66702 l 0.170016,-1.8309 h 1.584399 c 1.474027,0 1.646765,0.0656 2.475818,0.94465 l 0.890902,0.94516 v -1.47433 z m 86.099655,1.33326 c -0.23223,-0.003 -0.62035,0.38468 -1.156,1.16323 -0.44387,0.64513 -1.04511,1.24819 -1.33584,1.34049 -0.76445,0.24263 -0.66645,0.92604 0.13281,0.92604 h 0.66146 v 3.0546 c 0,2.92886 0.0283,3.08284 0.68109,3.73568 0.55959,0.55963 0.84732,0.65382 1.61541,0.52917 1.02604,-0.1665 2.20141,-0.8311 2.20141,-1.24488 0,-0.14484 -0.50209,-0.23124 -1.11569,-0.19224 -1.0461,0.0665 -1.12638,0.0213 -1.29139,-0.72295 -0.0968,-0.43656 -0.19003,-1.76952 -0.20723,-2.9621 l -0.0315,-2.16834 1.25419,-0.0806 c 0.94518,-0.0608 1.27635,-0.19475 1.34255,-0.54363 0.0746,-0.39292 -0.12053,-0.46302 -1.28881,-0.46302 h -1.37666 l 0.13436,-1.19063 c 0.0884,-0.78432 0.0121,-1.17781 -0.22014,-1.1808 z m -6.88899,2.02416 c -0.64598,-0.0252 -1.32325,0.16401 -1.89704,0.57258 l -0.7891,0.56172 -0.14676,-0.56069 c -0.11405,-0.43615 -0.28243,-0.52465 -0.75757,-0.39739 -0.33602,0.09 -0.84895,0.16756 -1.13999,0.17156 -0.29105,0.004 -0.70776,0.12126 -0.92604,0.26045 -0.3369,0.21483 -0.30691,0.31686 0.19844,0.67283 0.55531,0.39118 0.59531,0.61287 0.59531,3.30523 0,2.61531 -0.0497,2.91268 -0.52917,3.16931 -0.29104,0.15577 -0.52916,0.39807 -0.52916,0.53847 0,0.14129 0.88608,0.25528 1.98437,0.25528 1.51976,0 1.98438,-0.0862 1.98438,-0.36845 0,-0.20271 -0.1786,-0.4371 -0.39688,-0.5209 -0.31788,-0.12198 -0.39687,-0.70507 -0.39687,-2.92954 0,-2.47487 0.0555,-2.80689 0.51159,-3.05097 0.74928,-0.401 1.62848,-0.33505 2.17972,0.16381 0.40615,0.36752 0.48369,0.85493 0.48369,3.03341 0,2.32472 -0.0552,2.62524 -0.52917,2.87889 -0.999,0.53466 -0.52898,0.79375 1.43971,0.79375 2.01726,0 2.6764,-0.29038 1.76578,-0.77773 -0.45405,-0.243 -0.52436,-0.62792 -0.60306,-3.31504 -0.0844,-2.88234 -0.1252,-3.07711 -0.7922,-3.74344 -0.44899,-0.44854 -1.06399,-0.6879 -1.70998,-0.71314 z m -75.241915,0.0501 -1.256771,0.18138 c -1.795521,0.2592 -2.152493,0.49389 -1.434021,0.94258 0.533871,0.33341 0.574125,0.56755 0.574125,3.32848 0,2.69896 -0.04825,2.99566 -0.529167,3.25303 -0.291042,0.15577 -0.529166,0.39807 -0.529166,0.53847 0,0.33401 3.889421,0.33352 4.095874,-5.2e-4 0.08699,-0.14077 -0.08468,-0.40744 -0.381372,-0.59273 -0.500584,-0.31262 -0.539502,-0.60068 -0.539502,-3.99407 z m 5.218286,0.0264 c -1.194289,0.002 -2.261561,0.33897 -2.762105,0.92088 -1.215679,1.41332 -0.606435,2.8178 1.784904,4.11499 1.261996,0.68457 1.73562,1.09403 1.80144,1.55753 0.105108,0.74019 -0.325629,1.07559 -1.386995,1.08159 -0.565056,0.003 -1.037413,-0.28733 -1.785938,-1.09813 l -1.017509,-1.10226 0.0036,0.77153 c 0.0066,1.4162 0.287164,1.95285 1.151868,2.20349 2.608275,0.75599 4.929924,-0.42301 4.929924,-2.50321 0,-1.01701 -0.6516,-1.64478 -2.844263,-2.7404 -1.700112,-0.84951 -1.960118,-1.26759 -1.237651,-1.99006 0.643129,-0.64313 1.342087,-0.49919 2.454114,0.5054 0.56087,0.50671 1.07118,0.86978 1.13378,0.80718 0.0626,-0.0626 0.0683,-0.59289 0.0124,-1.17874 -0.0933,-0.97804 -0.17645,-1.07944 -1.016989,-1.23713 -0.410055,-0.0769 -0.822501,-0.11339 -1.220597,-0.11266 z m 15.475539,0.006 c -1.73851,0 -3.06482,0.85828 -3.18172,2.05879 -0.0743,0.76295 -0.011,0.85163 0.60875,0.85163 0.54045,0 0.77618,-0.20251 1.07849,-0.92604 0.31828,-0.76176 0.52553,-0.92604 1.16789,-0.92604 0.86007,0 1.3286,0.59316 1.3286,1.68155 0,0.52764 -0.17018,0.69424 -0.8599,0.84336 -0.47294,0.10225 -1.42136,0.46874 -2.10736,0.81442 -1.97849,0.99696 -2.33645,2.24519 -1.02165,3.55999 0.91207,0.91207 1.52356,0.9623 2.93781,0.24081 1.02534,-0.52309 1.05332,-0.52413 1.54616,-0.031 0.34907,0.34903 0.73243,0.46066 1.25987,0.36536 1.28447,-0.23202 1.99157,-1.12448 0.8909,-1.12448 -0.49406,0 -0.52917,-0.17617 -0.52917,-2.65875 0,-3.87642 -0.57337,-4.74959 -3.11867,-4.74959 z m 43.45058,0 c -2.73018,0 -4.5282,2.06587 -4.29069,4.92994 0.10232,1.2339 0.26438,1.60125 1.05419,2.39106 0.51328,0.51329 1.33631,1.03094 1.82883,1.15032 1.1053,0.26791 2.81938,0.0665 3.58997,-0.42168 0.31773,-0.20131 0.88328,-0.76658 1.25677,-1.25625 0.56327,-0.73848 0.67902,-1.17498 0.67902,-2.56005 0,-1.38254 -0.11591,-1.82204 -0.67489,-2.55489 -0.89145,-1.16875 -1.93711,-1.67845 -3.4432,-1.67845 z m 24.94886,0.007 c -1.34324,0.0404 -2.70646,0.66756 -3.12125,1.75855 -0.2063,0.54263 -0.17879,0.79737 0.11834,1.09451 0.54356,0.54356 1.18101,0.213 1.62109,-0.84026 0.64598,-1.54605 2.03373,-1.47547 2.38435,0.12092 0.21752,0.99037 0.19523,1.01096 -2.06396,1.94562 -0.98684,0.40828 -1.96911,0.99198 -2.18281,1.29708 -0.77718,1.10957 -0.33314,2.53251 0.95808,3.06906 0.79626,0.33088 2.04575,0.13914 2.64945,-0.40721 0.4191,-0.37927 0.50542,-0.36842 0.99529,0.12144 0.44566,0.44567 0.68107,0.49451 1.39268,0.29042 1.20424,-0.34537 1.56208,-0.76277 0.82114,-0.95653 -0.56597,-0.14801 -0.59093,-0.27786 -0.59893,-3.10007 -0.005,-1.89726 -0.12313,-3.09426 -0.33073,-3.36465 -0.56513,-0.73606 -1.59799,-1.0603 -2.64274,-1.02888 z m 23.44147,0.0243 v 5.2e-4 c -1.39499,-0.0123 -2.47946,0.51785 -3.25768,1.59215 -1.82098,2.51379 -0.92277,6.03492 1.74304,6.83266 1.71238,0.51242 3.43277,0.0373 4.22145,-1.16634 0.56329,-0.8597 0.34684,-1.13109 -0.45424,-0.56999 -1.00369,0.70301 -2.52046,0.54757 -3.41788,-0.34985 -0.42537,-0.42537 -0.77359,-0.95135 -0.77359,-1.16892 0,-0.21758 -0.0724,-0.58372 -0.16072,-0.81391 -0.13994,-0.36471 0.18447,-0.41858 2.52181,-0.41858 3.0349,0 3.21559,-0.12204 2.70423,-1.82882 -0.3989,-1.33142 -1.1015,-1.91096 -2.50941,-2.06965 -0.21198,-0.0239 -0.41773,-0.0375 -0.61701,-0.0393 z m -98.82136,0.0258 c -0.24945,-0.009 -0.521,-0.004 -0.81494,0.0145 -1.24658,0.0771 -1.67142,0.23484 -2.34817,0.87126 -1.03248,0.97097 -1.55443,2.16535 -1.55443,3.55534 0,1.96647 0.98186,3.49018 2.55126,3.96048 1.03057,0.30886 1.15793,0.31037 2.19315,0.0129 0.96642,-0.27717 2.39934,-1.48041 2.39934,-2.01486 0,-0.22409 -0.32085,-0.16869 -1.04542,0.18138 -1.34295,0.64885 -2.1534,0.63847 -3.01377,-0.0377 -1.20992,-0.95172 -1.42192,-3.17522 -0.47232,-4.94957 0.66494,-1.24244 2.32492,-0.98713 3.08043,0.47387 0.49275,0.95288 0.85772,1.00216 1.07281,0.14521 0.35918,-1.43111 -0.30177,-2.15185 -2.04794,-2.21226 z m 22.70766,0.20722 c -1.11396,0 -2.0252,0.0816 -2.0252,0.18139 0,0.0998 0.22683,0.42718 0.50384,0.7276 0.27701,0.30042 1.1854,2.06131 2.019,3.91294 1.38791,3.08287 1.48851,3.43165 1.19476,4.14083 -0.35595,0.85935 -1.60094,2.15542 -1.60094,1.66657 0,-0.17089 -0.29347,-0.31058 -0.65215,-0.31058 -0.83655,0 -1.33351,0.84354 -0.93535,1.5875 0.3969,0.74162 1.63099,0.68116 2.59158,-0.12712 0.56292,-0.47367 1.35849,-2.00217 2.8577,-5.49011 1.14271,-2.65852 2.34877,-5.08574 2.67994,-5.39347 0.33116,-0.30773 0.60203,-0.6351 0.60203,-0.7276 0,-0.0925 -0.83343,-0.16795 -1.85208,-0.16795 -1.01466,0 -1.84561,0.0659 -1.85208,0.14521 0,0.0797 0.30748,0.40912 0.68316,0.73226 l 0.68316,0.58756 -0.83612,2.10375 c -1.08998,2.74387 -1.07692,2.72934 -1.46193,1.68981 -0.18189,-0.49109 -0.60944,-1.62768 -0.94981,-2.52594 -0.6069,-1.60161 -0.60923,-1.64382 -0.12144,-2.18281 l 0.49764,-0.54984 z m 27.62829,0.59428 c 0.20847,0.004 0.42762,0.0539 0.65525,0.15761 1.64744,0.75063 1.98114,4.75541 0.51832,6.21823 v 5.1e-4 c -0.57303,0.573 -1.79537,0.55925 -2.32493,-0.0253 -1.88525,-2.08319 -0.86389,-6.38557 1.15136,-6.35051 z m 48.2415,0.0398 c 0.73919,-0.009 1.48001,0.59901 1.48001,1.35651 0,0.59855 -0.10129,0.65525 -1.16892,0.65525 -0.64294,0 -1.33391,0.0633 -1.53531,0.14056 -1.07428,0.41225 -0.3849,-1.53743 0.72192,-2.04173 0.16126,-0.0735 0.33172,-0.10852 0.5023,-0.11059 z m -14.06013,0.18294 c 0.44064,0.002 0.86129,0.22137 1.27279,0.65939 0.55853,0.59456 0.64131,0.93376 0.64131,2.62464 0,1.69088 -0.0828,2.03009 -0.64131,2.62465 -0.75717,0.80597 -1.86361,0.89428 -2.49287,0.19895 -0.34009,-0.37573 -0.4377,-1.02275 -0.4377,-2.89543 0,-2.1921 0.0536,-2.4492 0.58808,-2.8236 0.3721,-0.26063 0.72698,-0.39028 1.0697,-0.3886 z m -8.27598,3.22357 c 0.24545,0.004 0.2682,0.25157 0.2682,1.08572 0,0.93335 -0.12821,1.28348 -0.58808,1.60559 -0.74711,0.52327 -1.11899,0.51943 -1.65623,-0.0181 -0.83185,-0.83185 -0.0117,-2.12901 1.649,-2.60862 0.1387,-0.0401 0.24529,-0.066 0.32711,-0.0646 z m -68.4444,0.13229 c 0.25596,0.0123 0.28002,0.23183 0.22014,0.98651 -0.0462,0.58208 -0.20628,1.20716 -0.35605,1.38906 -0.28694,0.3485 -1.58324,0.45488 -1.88361,0.15451 -0.097,-0.097 -0.17621,-0.51075 -0.17621,-0.91932 0,-0.75457 0.77332,-1.37569 1.97972,-1.59009 0.0856,-0.0152 0.15694,-0.0235 0.21601,-0.0207 z" /><path
           id="path3"
           style="fill:#6c1e2f"
           d="m 120.23543,108.89961 c -1.94625,0.0145 -3.81865,0.93477 -4.6979,2.65824 -1.07011,2.0976 -0.50885,4.42336 1.62574,6.73912 l 1.05265,1.14205 -0.60824,0.42995 c -0.33466,0.23666 -1.28197,0.90034 -2.10478,1.47433 -1.98299,1.38332 -2.71287,2.82254 -2.55281,5.03535 0.19373,2.67829 2.11058,4.68378 5.02501,5.25756 1.64124,0.32313 2.39158,0.32032 3.97185,-0.015 1.61762,-0.34323 3.48966,-1.22998 4.64107,-2.19883 l 0.80046,-0.67386 1.62833,1.45314 c 1.19617,1.06732 1.83597,1.45263 2.41174,1.45263 0.43106,0 0.78393,-0.10131 0.78393,-0.22531 0,-0.283 -0.88559,-1.51128 -2.21434,-3.07062 l -1.02371,-1.20147 0.93896,-1.91823 c 1.05874,-2.16208 1.86656,-4.97075 1.52704,-5.31027 -0.12381,-0.12386 -0.5069,-0.18513 -0.85111,-0.13643 -0.52696,0.0746 -0.72201,0.40185 -1.23558,2.07274 -0.33545,1.09141 -0.80071,2.4328 -1.03405,2.9807 l -0.42426,0.9958 -1.87792,-1.78955 c -1.03266,-0.98446 -2.50219,-2.36063 -3.26544,-3.05769 -0.76326,-0.69705 -1.38751,-1.35568 -1.38751,-1.464 0,-0.10831 0.34474,-0.4003 0.76585,-0.64905 1.012,-0.59781 2.61612,-2.21728 3.04736,-3.0763 0.95475,-1.90184 0.68774,-3.90437 -0.69919,-5.24671 -1.17072,-1.13309 -2.72939,-1.66957 -4.24315,-1.6583 z m -0.0574,1.61076 c 0.93733,0.0146 1.88442,0.45487 2.43448,1.2733 0.23975,0.35674 0.40527,0.73724 0.49764,1.13482 10e-4,0.003 0.002,0.007 0.003,0.01 0.002,0.007 0.004,0.0132 0.005,0.0202 0.002,0.008 0.004,0.0158 0.005,0.0238 0.001,0.003 8.1e-4,0.006 0.001,0.01 3e-5,7.3e-4 0,0.002 0,0.003 2.2e-4,0.003 8.6e-4,0.005 0.002,0.008 v 5.2e-4 5.2e-4 c 8e-5,6.8e-4 4.4e-4,0.002 5.2e-4,0.003 v 5.2e-4 5.1e-4 c -2e-5,3.1e-4 -4e-5,0.001 0,0.002 6e-4,0.003 10e-4,0.006 0.002,0.009 v 5.2e-4 5.1e-4 5.2e-4 c 3.1e-4,0.002 2.1e-4,0.003 5.2e-4,0.005 1.6e-4,0.001 4.2e-4,0.002 5.2e-4,0.004 10e-4,0.006 10e-4,0.0125 0.003,0.0186 2.3e-4,0.001 2.8e-4,0.002 5.2e-4,0.004 -3e-5,4.5e-4 -5e-5,0.001 0,0.002 0.001,0.004 0.002,0.009 0.002,0.0134 0.004,0.02 0.007,0.0404 0.0108,0.0605 1e-4,4.1e-4 4.1e-4,6.3e-4 5.1e-4,10e-4 3e-5,5e-4 -7e-5,0.001 0,0.002 2.3e-4,10e-4 7.7e-4,0.002 0.001,0.004 4.3e-4,0.002 4.7e-4,0.003 5.2e-4,0.004 v 5.1e-4 l 5.1e-4,0.003 v 5.2e-4 c 3e-5,4.6e-4 2.4e-4,0.002 5.2e-4,0.003 1.4e-4,8.4e-4 -1.4e-4,0.002 0,0.003 0.20154,1.22403 -0.26451,2.59168 -1.37511,3.90881 -1.29155,1.5317 -1.55074,1.5392 -2.76934,0.0837 -1.90401,-2.27412 -2.20348,-4.45503 -0.80357,-5.85494 0.52578,-0.52578 1.24914,-0.77201 1.97817,-0.76067 z m -0.94981,10.29601 c 0.0966,0 1.69574,1.50199 3.5543,3.33778 l 3.37964,3.33778 -0.61288,0.66611 c -0.33703,0.36628 -1.20819,0.94672 -1.9358,1.28984 -2.66687,1.25763 -6.11372,0.58362 -7.47241,-1.46089 -0.72007,-1.08354 -0.79149,-2.84449 -0.16898,-4.15633 0.37493,-0.7901 2.77753,-3.01429 3.25613,-3.01429 z m -68.613385,12.15585 -2.06344,2.05207 -2.063957,2.05155 v 15.68277 15.68276 h 6.087484 6.086967 l -0.0677,-17.66094 -0.06821,-17.66094 -3.955314,-0.0734 z m -21.85448,11.65665 v 11.90625 11.90625 h 6.085416 6.085417 v -11.90625 -11.90625 h -6.085417 z m -5.027084,0.66508 -7.276041,7.27242 -7.276042,7.27242 v 4.30103 4.30155 h 7.276042 7.276041 v -11.57397 z" /></g></g></g></svg>
