<?xml version="1.0" encoding="UTF-8" standalone="no"?>
<!-- Created with Inkscape (http://www.inkscape.org/) -->

<svg
   width="209.01776mm"
   height="73.298531mm"
   viewBox="0 0 209.01776 73.298531"
   version="1.1"
   id="svg1"
   xml:space="preserve"
   xmlns="http://www.w3.org/2000/svg"
   xmlns:svg="http://www.w3.org/2000/svg"><defs
     id="defs1" /><g
     id="layer1"
     transform="translate(-0.49111761,-111.85073)"><g
       id="g30"
       transform="translate(0.78148208,2.0773446)"><path
         style="fill:#ffffff;fill-opacity:1"
         d="m 128.44607,183.04827 c -0.25563,-0.0665 -0.48155,-0.20388 -0.58891,-0.35802 -0.5199,-0.74645 -0.046,-1.68628 0.85023,-1.68628 0.32902,0 0.58906,0.11705 0.63097,0.284 0.0185,0.0738 0.0592,0.1341 0.0905,0.1341 0.10993,0 0.4488,-0.27285 0.703,-0.56605 0.81473,-0.9397 1.06455,-1.56721 0.90092,-2.26305 -0.15393,-0.65461 -1.29767,-3.27586 -2.28016,-5.22571 -0.60057,-1.19189 -0.80901,-1.54397 -1.2444,-2.10194 -0.25881,-0.33167 -0.2868,-0.42271 -0.14662,-0.47686 0.16029,-0.0619 1.99189,-0.13735 2.95356,-0.12166 l 0.92835,0.0151 -0.36657,0.41748 c -0.45876,0.52246 -0.50508,0.64902 -0.39491,1.07903 0.0924,0.36053 1.39632,3.87877 1.55186,4.18713 0.10862,0.21533 0.19534,0.24388 0.31752,0.10453 0.13683,-0.15606 0.24285,-0.39869 1.04481,-2.39105 l 0.77837,-1.93375 -0.35562,-0.31202 c -0.64341,-0.56454 -1.02621,-0.97204 -0.96789,-1.03036 0.0924,-0.0924 1.69139,-0.15409 2.59828,-0.10021 0.8174,0.0486 1.01913,0.0804 1.01913,0.1607 0,0.0568 -0.4289,0.57634 -0.47583,0.57634 -0.17369,0 -1.48532,2.52973 -2.42525,4.67757 -1.86111,4.25282 -2.41325,5.3761 -2.98649,6.07565 -0.2239,0.27324 -0.692,0.59147 -1.0879,0.7396 -0.3183,0.11909 -0.82061,0.17459 -1.04696,0.11568 z m 18.20364,-4.03268 c -2.66982,-0.47026 -4.04113,-1.46055 -5.08354,-3.67106 -0.15199,-0.32232 -0.31534,-0.70611 -0.36298,-0.85286 -0.27777,-0.85557 -0.16108,-2.31339 0.28295,-3.53506 0.45579,-1.25398 1.2782,-2.45725 2.13375,-3.12185 1.17246,-0.91078 1.72928,-1.06015 3.98071,-1.06784 1.17629,-0.004 1.44798,0.01 1.80309,0.0924 1.34135,0.31148 1.78521,0.95622 1.84011,2.67286 0.0434,1.35593 -0.12016,1.40889 -0.81684,0.26455 -0.69964,-1.14919 -1.16888,-1.5727 -2.09467,-1.89055 -0.39841,-0.13678 -1.50729,-0.13729 -1.95988,-8.9e-4 -0.8273,0.24932 -1.70091,0.95223 -2.16593,1.74271 -0.80085,1.36138 -0.99253,3.20903 -0.52551,5.06549 0.29629,1.17776 1.28242,2.41578 2.32639,2.92063 0.94099,0.45504 1.93248,0.4558 2.87369,0.002 0.52916,-0.25502 0.8998,-0.57683 1.33713,-1.16101 0.45769,-0.61135 0.81964,-1.01122 0.91534,-1.01122 0.19987,0 0.22921,1.23547 0.048,2.02292 -0.15391,0.66897 -0.33714,0.83016 -1.29064,1.13541 -0.65208,0.20876 -1.39502,0.36975 -2.05552,0.44541 -0.5697,0.0653 -0.50194,0.0682 -1.18569,-0.0522 z m -49.822975,0.0225 c -0.93729,-0.14228 -1.41143,-0.31568 -1.690184,-0.61809 -0.310669,-0.33703 -0.38279,-0.62533 -0.412608,-1.64933 l -0.02511,-0.86234 0.405782,0.44424 c 0.788038,0.86272 1.364963,1.39486 1.679892,1.5495 0.272509,0.13382 0.35698,0.14903 0.826178,0.14877 0.452159,-2.5e-4 0.557862,-0.0179 0.783875,-0.13066 0.328569,-0.16397 0.496578,-0.40577 0.496578,-0.71468 0,-0.60704 -0.324099,-0.9294 -1.776955,-1.76742 -0.388055,-0.22383 -0.846666,-0.50739 -1.019135,-0.63014 -0.438866,-0.31234 -1.028526,-0.93652 -1.20694,-1.2776 -0.134714,-0.25753 -0.150441,-0.33919 -0.151134,-0.78474 -7.14e-4,-0.45868 0.01275,-0.52478 0.173367,-0.85133 0.44212,-0.89885 1.345736,-1.37998 2.776893,-1.47855 0.540883,-0.0373 1.369742,0.037 1.871089,0.16756 0.577057,0.1503 0.678097,0.37211 0.729427,1.60128 0.0265,0.63402 0.0202,0.71862 -0.0529,0.71862 -0.0864,0 -0.586317,-0.37103 -1.341965,-0.99602 -0.599809,-0.4961 -0.968953,-0.67641 -1.384812,-0.67641 -0.263462,0 -0.363416,0.0268 -0.556589,0.14933 -0.291836,0.18507 -0.553666,0.49569 -0.629258,0.7465 -0.04972,0.16497 -0.04174,0.21803 0.06002,0.39909 0.161184,0.28679 0.47776,0.51433 1.389771,0.99889 1.518223,0.80666 1.902586,1.0509 2.353133,1.49529 0.34331,0.33863 0.4422,0.47275 0.52018,0.70555 0.27409,0.81826 -0.0509,1.90133 -0.753597,2.51172 -0.29609,0.25719 -0.95989,0.58406 -1.418673,0.69859 -0.339038,0.0846 -1.349328,0.14747 -1.646296,0.10238 z m 7.813375,-0.11403 c -0.86249,-0.25459 -1.3888,-0.5802 -1.85875,-1.14993 -0.35996,-0.4364 -0.61954,-0.96787 -0.78695,-1.61123 -0.19202,-0.73796 -0.19401,-1.75769 -0.005,-2.47942 0.23596,-0.90021 0.66996,-1.62222 1.38646,-2.30651 0.66037,-0.63068 1.04669,-0.78305 2.23668,-0.88215 1.91914,-0.15984 2.95518,0.29626 3.03878,1.33776 0.0476,0.5928 -0.16632,1.33449 -0.40689,1.41085 -0.20579,0.0653 -0.37158,-0.11555 -0.8023,-0.87526 -0.32384,-0.57118 -1.00194,-1.05018 -1.58436,-1.11916 -0.6026,-0.0714 -1.16674,0.26968 -1.4721,0.88994 -0.37664,0.76509 -0.53006,1.41617 -0.52878,2.24409 0.002,1.02595 0.26129,1.80493 0.78703,2.36083 0.50935,0.53856 0.99702,0.76496 1.64231,0.76244 0.47573,-0.002 0.80787,-0.0929 1.60108,-0.43885 0.75388,-0.3288 0.9466,-0.38273 1.0222,-0.28605 0.21116,0.27005 -0.72124,1.25517 -1.70867,1.80527 -0.43849,0.24429 -1.10947,0.43535 -1.62016,0.46133 -0.37641,0.0191 -0.52005,2.3e-4 -0.94074,-0.12395 z m 6.71584,0.0228 c -0.54044,-0.25317 -1.20715,-0.93911 -1.44227,-1.48386 -0.39426,-0.91346 0.0849,-1.78229 1.38299,-2.50761 0.68785,-0.38435 1.64594,-0.76282 2.61485,-1.03292 0.19145,-0.0534 0.36693,-0.14463 0.46316,-0.24085 l 0.15492,-0.15493 -0.0216,-0.53386 c -0.023,-0.56856 -0.13552,-0.92542 -0.3716,-1.17852 -0.38235,-0.4099 -1.25435,-0.49321 -1.67761,-0.16027 -0.0764,0.0601 -0.24703,0.33639 -0.37909,0.61392 -0.42007,0.88276 -0.55995,1.0011 -1.18344,1.0011 -0.48365,0 -0.55947,-0.0646 -0.55947,-0.47657 0,-1.11403 0.70122,-1.87633 2.06909,-2.24933 0.58986,-0.16084 1.84387,-0.15915 2.45152,0.003 1.04705,0.27993 1.49824,0.95738 1.67013,2.50765 0.0402,0.36255 0.0876,1.42353 0.10525,2.35773 0.0177,0.93421 0.0565,1.82267 0.0863,1.97436 0.0643,0.32785 0.16054,0.40412 0.5656,0.44838 0.15636,0.0171 0.31816,0.0649 0.35955,0.10633 0.28249,0.28249 -0.50107,0.83101 -1.3989,0.97929 -0.49224,0.0813 -0.8375,-0.0225 -1.21405,-0.36495 -0.30572,-0.27802 -0.45869,-0.37345 -0.59868,-0.37345 -0.0507,0 -0.41091,0.15065 -0.80051,0.33478 -0.38959,0.18412 -0.85458,0.38403 -1.0333,0.44423 -0.44538,0.15004 -0.90374,0.14489 -1.24285,-0.014 z m 2.28451,-1.46409 c 0.39759,-0.0936 0.55327,-0.2045 0.67583,-0.48158 0.22563,-0.51006 0.36391,-1.88961 0.20826,-2.0776 -0.20701,-0.25002 -1.39785,0.12235 -1.91461,0.59868 -0.41303,0.38072 -0.51812,0.68924 -0.44125,1.29549 0.0578,0.45587 0.14409,0.61137 0.37652,0.67849 0.25112,0.0725 0.75624,0.0663 1.09525,-0.0135 z m 60.95001,1.48839 c -0.3151,-0.14311 -0.88453,-0.69982 -1.03923,-1.01603 -0.074,-0.15115 -0.15454,-0.44266 -0.18299,-0.66194 -0.028,-0.2155 -0.0516,-1.56188 -0.0525,-2.99193 l -0.002,-2.60011 -0.4573,-8e-5 c -0.58505,-10e-5 -0.81506,-0.0983 -0.83996,-0.35841 -0.0207,-0.216 0.12447,-0.38728 0.45033,-0.53142 0.33081,-0.14633 0.8897,-0.71227 1.47102,-1.48956 0.53476,-0.71504 0.75906,-0.94325 0.9821,-0.99923 0.30264,-0.076 0.36477,0.31393 0.23539,1.47694 l -0.0937,0.84206 1.18041,0.0261 c 1.40167,0.031 1.55455,0.0756 1.48204,0.43254 -0.0741,0.3647 -0.37237,0.47791 -1.45691,0.55297 -0.43148,0.0299 -0.86461,0.0664 -0.96251,0.0812 l -0.17801,0.0269 0.032,1.70773 c 0.0503,2.68697 0.16229,3.67111 0.45505,3.99847 l 0.14814,0.16564 0.7217,-0.0143 c 0.85232,-0.0169 1.27261,0.0494 1.27261,0.20075 0,0.20257 -0.36698,0.51781 -0.91093,0.78253 -0.88497,0.43067 -1.79256,0.57922 -2.25517,0.36911 z m 30.16013,0.0459 c -1.09034,-0.1191 -2.02341,-0.59909 -2.61508,-1.34525 -0.29176,-0.36794 -0.67205,-1.12394 -0.79505,-1.58054 -0.0693,-0.25735 -0.0914,-0.54245 -0.0911,-1.17593 3.6e-4,-0.7139 0.0178,-0.89656 0.11951,-1.24883 0.32416,-1.12315 0.95392,-2.04564 1.7684,-2.5904 0.72264,-0.48333 1.43776,-0.66019 2.47566,-0.61225 1.67106,0.0772 2.44577,0.62766 2.893,2.05565 0.20057,0.6404 0.26507,1.07245 0.19281,1.29142 -0.14338,0.43443 -0.48872,0.49656 -3.05968,0.55046 -2.02531,0.0425 -2.29333,0.069 -2.35643,0.23346 -0.0154,0.0402 0.007,0.19928 0.0501,0.35356 0.043,0.15428 0.0932,0.40015 0.1115,0.54636 0.0454,0.36202 0.27533,0.74262 0.72233,1.19581 0.58047,0.58851 1.22506,0.86406 2.02126,0.86406 0.48509,0 0.93429,-0.11138 1.28046,-0.3175 0.42139,-0.25092 0.80465,-0.42371 0.86165,-0.38848 0.19343,0.11955 -0.10292,0.75448 -0.57421,1.23022 -0.70901,0.71573 -1.83203,1.06633 -3.00514,0.93818 z m -0.76118,-5.56833 c 0.19316,-0.0495 0.71455,-0.0975 1.32387,-0.12179 0.62036,-0.0248 1.05119,-0.0648 1.12531,-0.10446 0.22807,-0.12214 0.27842,-0.46812 0.13729,-0.94337 -0.22561,-0.75969 -1.26502,-1.21809 -1.96054,-0.86463 -0.80493,0.40907 -1.54756,1.80142 -1.10017,2.0627 0.11235,0.0656 0.10545,0.066 0.47424,-0.0284 z m -23.9724,5.49328 c -0.65527,-0.14887 -1.23746,-0.61585 -1.51771,-1.21737 -0.11904,-0.25551 -0.14019,-0.37146 -0.14089,-0.77212 -7.5e-4,-0.42841 0.0149,-0.5034 0.17123,-0.82096 0.30947,-0.62863 0.90197,-1.00995 2.87742,-1.85186 1.05156,-0.44817 1.31065,-0.58915 1.50316,-0.81793 0.12888,-0.15317 0.13622,-0.18908 0.10855,-0.53127 -0.0753,-0.93133 -0.59069,-1.64746 -1.18567,-1.64746 -0.44952,0 -0.89191,0.38241 -1.23943,1.0714 -0.43971,0.87174 -0.69131,1.12366 -1.12225,1.12366 -0.44362,0 -0.82633,-0.47611 -0.74308,-0.92442 0.17833,-0.96027 1.02977,-1.70146 2.30987,-2.01075 0.57897,-0.13989 1.49997,-0.15131 1.99695,-0.0248 0.71788,0.18281 1.47842,0.6809 1.62504,1.06428 0.13693,0.35807 0.21228,1.37509 0.2566,3.46355 0.0291,1.37126 0.0688,2.25117 0.10807,2.39256 0.0702,0.2529 0.23375,0.40514 0.51745,0.48153 0.26457,0.0712 0.39429,0.2182 0.31816,0.36044 -0.11772,0.21998 -1.33342,0.68522 -1.7905,0.68522 -0.17308,0 -0.51031,-0.15894 -0.62021,-0.29231 -0.15684,-0.19033 -0.58579,-0.49164 -0.69993,-0.49164 -0.0655,0 -0.23392,0.0909 -0.37421,0.2021 -0.1403,0.11115 -0.34916,0.24967 -0.46413,0.30782 -0.54264,0.27441 -1.33031,0.37847 -1.89449,0.25029 z m 2.129,-1.32163 c 0.36227,-0.1741 0.75653,-0.5642 0.83864,-0.82979 0.0899,-0.29072 0.12928,-1.6068 0.0555,-1.85312 -0.0755,-0.25213 -0.18765,-0.28759 -0.56368,-0.17828 -1.12657,0.32751 -1.97923,1.14162 -1.96856,1.87956 0.005,0.32221 0.0963,0.50753 0.39334,0.79572 0.42345,0.41076 0.69312,0.45104 1.24478,0.18591 z m -26.4236,1.26772 c -0.94206,-0.20495 -2.30304,-1.2839 -2.71394,-2.15152 -0.28588,-0.60367 -0.39169,-2.10645 -0.20917,-2.97103 0.27438,-1.29977 1.04213,-2.33653 2.12508,-2.86968 0.71965,-0.35429 1.17829,-0.45964 2.03135,-0.46658 1.65297,-0.0135 2.77295,0.57841 3.66056,1.93448 0.39013,0.59603 0.44212,0.86535 0.44212,2.29026 0,1.09725 -0.0101,1.23395 -0.11607,1.5679 -0.1561,0.49199 -0.46198,0.94372 -1.05212,1.55382 -0.55191,0.57056 -0.82756,0.7669 -1.29682,0.92368 -0.74956,0.25044 -2.16082,0.34318 -2.87099,0.18867 z m 1.66677,-0.8886 c 0.38214,-0.0995 0.6452,-0.27521 0.88707,-0.59236 0.45207,-0.5928 0.66666,-1.32917 0.7033,-2.4134 0.0741,-2.1943 -0.79212,-3.73156 -2.10221,-3.73056 -0.29176,2.2e-4 -0.41957,0.028 -0.63116,0.13701 -0.57279,0.2952 -1.09112,1.05928 -1.3387,1.97338 -0.16267,0.60062 -0.17544,2.01531 -0.0234,2.58704 0.12751,0.47934 0.44767,1.14791 0.70655,1.47541 0.43736,0.55331 1.07299,0.75245 1.79851,0.56348 z m 32.57087,0.89377 c -0.89757,-0.14853 -2.23787,-0.55606 -2.30609,-0.70121 -0.0229,-0.0488 -0.0566,-2.32291 -0.0748,-5.05367 -0.0332,-4.96452 -0.0426,-5.20531 -0.21591,-5.53362 -0.0322,-0.061 -0.16425,-0.22842 -0.29349,-0.37214 -0.27663,-0.30763 -0.42791,-0.54124 -0.42818,-0.6612 -1.1e-4,-0.0475 0.0762,-0.13119 0.16966,-0.18606 0.4559,-0.26778 1.76855,-0.73128 2.21429,-0.78188 l 0.26748,-0.0304 0.0316,0.17646 c 0.0174,0.097 0.056,1.17599 0.0858,2.39765 0.0298,1.22165 0.0767,2.38582 0.10425,2.58703 0.0275,0.20122 0.0508,0.38348 0.0517,0.40504 0.004,0.0982 0.22179,0.0184 0.59865,-0.21953 0.59367,-0.37488 0.77971,-0.42809 1.60547,-0.45916 1.14463,-0.0431 1.84547,0.17262 2.45751,0.75633 0.80612,0.7688 1.19185,2.0403 1.04698,3.45116 -0.0858,0.83514 -0.22578,1.34488 -0.55643,2.02546 -0.54234,1.11631 -1.39366,1.80794 -2.61239,2.12234 -0.53398,0.13775 -1.55804,0.17466 -2.14611,0.0774 z m 1.44083,-0.899 c 0.36842,-0.10773 0.71023,-0.32767 1.01407,-0.6525 0.49356,-0.52765 0.59827,-0.97486 0.6009,-2.56637 0.003,-1.66748 -0.10884,-2.09686 -0.69816,-2.68617 -0.42613,-0.42614 -0.77343,-0.59593 -1.22035,-0.59663 -0.3912,-6.1e-4 -0.74677,0.12398 -1.10565,0.38743 -0.3652,0.26808 -0.46569,0.5051 -0.53612,1.26453 -0.0666,0.71766 -0.0277,3.05314 0.0594,3.57387 0.11542,0.68963 0.40491,1.07065 0.95892,1.2621 0.33688,0.11642 0.56428,0.11979 0.92695,0.0137 z M 81.321801,178.8048 c -0.546328,-0.0452 -0.931897,-0.12913 -0.931897,-0.20289 0,-0.0946 0.279996,-0.37438 0.508943,-0.50856 0.303745,-0.178 0.41513,-0.42442 0.482965,-1.06845 0.02939,-0.27902 0.05194,-2.3257 0.05245,-4.76122 l 9.06e-4,-4.27184 -0.5357,-0.25695 c -0.496069,-0.23794 -0.831437,-0.48526 -0.757829,-0.55887 0.123038,-0.12304 3.09604,-0.2275 6.532932,-0.22954 l 2.181996,-0.001 v 1.46886 1.46886 l -0.726014,-0.75191 c -0.45951,-0.4759 -0.822418,-0.80438 -0.988637,-0.89485 -0.352801,-0.19202 -0.791009,-0.24212 -2.134868,-0.24408 l -1.105693,-0.002 -0.03117,0.24825 c -0.107204,0.85396 -0.246454,2.77884 -0.229789,3.17643 0.03373,0.80468 0.245568,1.04129 0.985639,1.10092 1.054549,0.085 2.156917,-0.49138 2.372774,-1.24053 0.0994,-0.34499 0.259345,-0.44537 0.346091,-0.21721 0.103389,0.27193 0.150722,0.85426 0.149956,1.84489 -8.5e-4,1.09896 -0.08292,1.76865 -0.237693,1.93968 -0.08924,0.0986 -0.0926,0.0984 -0.209542,-0.0114 -0.06536,-0.0614 -0.16085,-0.22846 -0.21219,-0.37123 -0.122102,-0.33956 -0.37825,-0.63293 -0.656173,-0.75153 -0.185054,-0.079 -0.405132,-0.0987 -1.284552,-0.11537 l -1.061238,-0.0201 0.01597,1.97763 c 0.01841,2.27927 0.0096,2.23501 0.487379,2.45906 0.940576,0.44109 1.015151,0.54903 0.48139,0.6968 -0.507679,0.14054 -2.356073,0.19238 -3.496415,0.0981 z m 9.154934,5.7e-4 c -0.592712,-0.0492 -0.783951,-0.11124 -0.783951,-0.2542 0,-0.0996 0.06044,-0.15648 0.570155,-0.53703 0.151972,-0.11346 0.255637,-0.24324 0.304429,-0.3811 0.209102,-0.59084 0.21767,-4.92936 0.01108,-5.61005 -0.04796,-0.15802 -0.139047,-0.28497 -0.300006,-0.41811 -0.38701,-0.32012 -0.48113,-0.41819 -0.48113,-0.50133 0,-0.11021 0.320771,-0.26192 0.766224,-0.36239 0.367693,-0.0829 2.02626,-0.3466 2.180258,-0.3466 0.06892,0 0.0809,0.41581 0.09751,3.38405 0.02245,4.01299 -0.01,3.76487 0.56153,4.29806 0.428785,0.40004 0.454905,0.51138 0.143878,0.61328 -0.442402,0.14495 -2.00635,0.20375 -3.069973,0.11542 z m 29.058435,0.0236 c -0.50992,-0.0461 -0.94923,-0.13814 -0.97459,-0.20423 -0.0466,-0.12135 0.0814,-0.28025 0.38828,-0.48203 0.35638,-0.23434 0.46216,-0.42357 0.53598,-0.95886 0.081,-0.58715 0.12404,-6.43827 0.0584,-7.93912 -0.0618,-1.41448 -0.12551,-1.75323 -0.3725,-1.98154 -0.0804,-0.0743 -0.24297,-0.22295 -0.36127,-0.33027 -0.37156,-0.33712 -0.27474,-0.46916 0.56887,-0.77572 0.47251,-0.17171 1.7662,-0.51865 1.93398,-0.51865 0.25877,0 0.31148,0.95551 0.36616,6.63745 0.029,3.01331 0.067,4.89538 0.10275,5.08835 0.0815,0.4397 0.17164,0.57859 0.49635,0.76436 0.15835,0.0906 0.32291,0.21471 0.3657,0.2758 0.0692,0.0988 0.0687,0.12112 -0.005,0.20226 -0.0454,0.0502 -0.20366,0.11818 -0.35172,0.15117 -0.26678,0.0594 -2.29933,0.11192 -2.7517,0.071 z m 43.44152,-0.0239 c -0.46429,-0.0448 -0.79461,-0.13149 -0.79461,-0.20842 0,-0.0864 0.28367,-0.3622 0.54877,-0.53355 0.21928,-0.14174 0.27778,-0.21513 0.36366,-0.45629 0.0939,-0.26357 0.10396,-0.46446 0.12173,-2.42443 0.0201,-2.22004 -0.0147,-2.81615 -0.18501,-3.16349 -0.0502,-0.10246 -0.25008,-0.31292 -0.44411,-0.4677 -0.20814,-0.16603 -0.35278,-0.32124 -0.35278,-0.37858 0,-0.22093 0.73898,-0.51316 1.30659,-0.51668 0.12935,-8e-4 0.45861,-0.0479 0.73169,-0.10461 0.27307,-0.0567 0.53872,-0.10346 0.59033,-0.10384 0.16617,-0.001 0.3253,0.2234 0.42532,0.60034 0.0534,0.20122 0.10378,0.37401 0.11198,0.384 0.008,0.01 0.23408,-0.13411 0.50197,-0.3202 0.8531,-0.59262 1.32739,-0.76935 2.06459,-0.76935 0.77323,0 1.36111,0.2359 1.87279,0.75151 0.54953,0.55375 0.62744,0.85831 0.70351,2.75013 0.0933,2.32086 0.15947,3.32869 0.23902,3.64179 0.079,0.31088 0.16785,0.42099 0.61633,0.76363 0.10506,0.0803 0.19103,0.18155 0.19103,0.22506 0,0.13865 -0.42051,0.27544 -1.02212,0.33249 -1.10325,0.10462 -2.57388,0.0388 -2.89985,-0.12975 -0.26248,-0.13573 -0.19647,-0.26975 0.2803,-0.5691 0.46374,-0.29117 0.50702,-0.42508 0.56935,-1.76146 0.0617,-1.32275 -0.012,-3.21716 -0.14159,-3.6425 -0.1788,-0.58661 -0.76714,-0.96931 -1.48979,-0.96905 -0.68656,2.4e-4 -1.19402,0.23488 -1.37084,0.63385 -0.0937,0.2115 -0.11711,0.41755 -0.16318,1.43872 -0.0576,1.27605 0.0113,3.43831 0.12138,3.80984 0.0321,0.1084 0.12724,0.24628 0.21635,0.31358 0.31275,0.23619 0.41233,0.36599 0.41233,0.53745 0,0.21299 -0.13296,0.27801 -0.70247,0.3435 -0.49342,0.0567 -1.80241,0.053 -2.42267,-0.007 z m 34.03893,0.002 c -0.49284,-0.0409 -0.891,-0.12694 -0.93782,-0.20269 -0.0557,-0.0901 0.19953,-0.32675 0.52177,-0.48387 0.51312,-0.25019 0.60257,-0.37115 0.65742,-0.88902 0.13537,-1.27807 0.16663,-7.57745 0.0437,-8.79728 -0.0676,-0.67055 -0.16101,-0.89861 -0.54837,-1.33878 -0.18409,-0.20919 -0.35774,-0.44641 -0.38589,-0.52716 -0.0487,-0.13965 -0.0392,-0.15288 0.1945,-0.27073 0.53227,-0.26845 2.29612,-0.74284 2.39487,-0.64409 0.17284,0.17284 0.22847,1.67818 0.26416,7.14841 l 0.0329,5.04684 0.39507,0.17778 c 0.41611,0.18725 0.73869,0.42907 0.73869,0.55376 0,0.0409 -0.0592,0.0968 -0.13148,0.12426 -0.35987,0.13682 -2.1451,0.19334 -3.23951,0.10257 z M 8.7106853,177.55299 c -3.6200166,-0.0573 -4.5503256,-0.11012 -5.0844246,-0.28849 -0.9866131,-0.32949 -2.0170259,-1.06383 -2.68946399,-1.91671 -0.84085903,-1.06649 -0.93029702,-1.42303 -1.03274419,-4.11708 -0.13582622,-3.5718 -0.25512257,-40.58621 -0.16044228,-49.78086 0.0623569,-6.05564 0.10407115,-7.25307 0.27157583,-7.79573 0.42198054,-1.36708 1.66144633,-2.75992 2.99347163,-3.36389 0.791339,-0.35881 1.6645014,-0.40724 8.4458553,-0.46846 11.215995,-0.10126 42.447036,-0.0326 47.585802,0.10454 2.694058,0.0719 2.903048,0.0936 3.445198,0.35675 1.274181,0.61856 2.699296,2.09342 3.198929,3.31057 0.105319,0.25657 0.128972,0.44105 0.174227,1.35885 0.298582,6.05547 0.298531,49.8303 -6.7e-5,56.99901 -0.03698,0.88776 -0.07744,1.34354 -0.134559,1.51563 -0.09827,0.29609 -0.429358,0.91665 -0.71217,1.33481 -0.295873,0.43748 -1.191506,1.50159 -1.427737,1.69631 -0.825466,0.68042 -2.399088,0.88081 -7.914808,1.0079 -2.916073,0.0672 -43.141262,0.10732 -46.9586427,0.0469 z m 47.1676957,-3.50041 c 3.851804,-0.0618 4.810088,-0.12626 5.252469,-0.35339 0.390202,-0.20035 0.928267,-0.77601 1.16835,-1.25 0.166522,-0.32876 0.209149,-1.27394 0.274159,-6.07897 0.0585,-4.32402 0.02885,-40.69057 -0.03915,-48.02102 l -0.03361,-3.62329 -0.841558,-0.75377 -0.841559,-0.75377 H 32.719772 4.6220642 l -0.5749381,0.59349 c -0.6339103,0.65436 -0.8599957,1.02537 -0.9632791,1.58075 -0.070099,0.37694 0.032784,48.69326 0.1126671,52.91136 0.055381,2.92428 0.1317782,4.49016 0.2304879,4.7242 0.078876,0.18702 0.5120098,0.60758 0.7553303,0.7334 0.1259249,0.0651 0.419305,0.0973 1.2233395,0.13437 1.272544,0.0586 9.2289272,0.15815 13.8360842,0.17313 11.072081,0.036 34.00769,0.0257 36.636625,-0.0165 z M 8.6322902,166.09577 v -4.29874 l 7.2646098,-7.26446 7.264609,-7.26447 v 11.5632 11.5632 H 15.8969 8.6322902 Z M 28.231056,158.47845 V 146.5624 h 6.088683 6.088683 v 11.91605 11.91605 h -6.088683 -6.088683 z m 17.718084,-3.7499 c 4.4e-4,-8.61627 0.01808,-15.68946 0.0392,-15.71821 0.02112,-0.0287 0.956805,-0.96312 2.079303,-2.0764 l 2.040906,-2.02414 3.913596,0.0782 c 2.152477,0.043 3.92661,0.0912 3.942516,0.10708 0.02316,0.0232 0.139936,24.77387 0.156985,33.27425 l 0.0041,2.02521 H 52.037023 45.94834 Z M 8.1619198,153.94967 v -2.51653 l 9.0747762,-9.04669 c 4.991127,-4.97567 9.097824,-9.04668 9.125993,-9.04668 0.08675,0 4.05087,2.18703 7.565075,4.1737 l 1.85535,1.04888 0.339712,-0.32876 c 5.785008,-5.59852 12.769926,-12.28889 14.144319,-13.54787 l 0.791028,-0.7246 -1.55596,-1.54309 c -1.559127,-1.54622 -2.108664,-2.17432 -2.079661,-2.37696 0.01855,-0.1296 0.326282,-0.20037 1.238748,-0.28488 1.485038,-0.13754 6.437396,-0.26869 8.079427,-0.21395 l 0.78395,0.0261 0.03401,0.44424 c 0.05386,0.70354 0.04854,6.03785 -0.0077,7.73498 -0.05589,1.68618 -0.0889,2.09053 -0.170663,2.09053 -0.09428,0 -0.486864,-0.35043 -1.596881,-1.42543 -1.152184,-1.11583 -1.920601,-1.80937 -2.12725,-1.91996 -0.115692,-0.0619 -0.148821,-0.0508 -0.376505,0.12625 -0.668852,0.52013 -1.947027,1.74142 -7.279075,6.95512 -4.795637,4.6892 -5.363941,5.24216 -6.899013,6.71269 -1.440465,1.3799 -2.517886,2.37569 -2.703016,2.49822 -0.108612,0.0719 -0.165112,0.0515 -0.862346,-0.31162 -0.410365,-0.2137 -1.851489,-1.0121 -3.202497,-1.77423 -2.460613,-1.38808 -5.178881,-2.89205 -5.336169,-2.9524 -0.06125,-0.0235 -2.6075,2.49149 -9.459728,9.34364 l -9.3759142,9.3758 z m 83.4192312,15.02885 c -0.499148,-0.0963 -0.988503,-0.48115 -1.081128,-0.8502 -0.07338,-0.29235 0.4855,-1.11778 0.885263,-1.30748 0.09826,-0.0466 0.295085,-0.0848 0.4374,-0.0848 0.725207,0 1.162371,0.91669 0.859889,1.80309 -0.07098,0.208 -0.126495,0.27882 -0.272095,0.34712 -0.240159,0.11265 -0.546859,0.14676 -0.829329,0.0922 z m 36.525209,-9.16976 c -1.80866,-0.43258 -2.07863,-0.54889 -2.29959,-0.99067 -0.12394,-0.24781 -0.13052,-0.30559 -0.12808,-1.12359 0.002,-0.64731 0.0252,-0.94663 0.0933,-1.20037 0.18537,-0.69073 0.38341,-0.82841 0.60387,-0.41979 0.34954,0.64786 1.6177,1.97684 2.12248,2.22427 0.30883,0.15138 0.32662,0.15369 1.17592,0.15274 0.7701,-8.6e-4 0.89354,-0.0135 1.15394,-0.11801 0.38074,-0.15282 0.69273,-0.4247 0.80669,-0.70298 0.12917,-0.31542 0.12452,-0.88758 -0.01,-1.19018 -0.18633,-0.42018 -0.5042,-0.64448 -2.19532,-1.54917 -2.2756,-1.21738 -3.01567,-1.77267 -3.43173,-2.57494 -0.24698,-0.47622 -0.32144,-0.82444 -0.31952,-1.4942 0.002,-0.6869 0.0722,-1.011 0.33963,-1.5679 0.35724,-0.74387 0.85926,-1.23875 1.64385,-1.6205 0.7236,-0.35206 1.15592,-0.44741 2.18048,-0.4809 0.98165,-0.0321 1.61259,0.0279 2.33983,0.22255 0.81469,0.21802 1.14403,0.43924 1.2503,0.83981 0.0781,0.29463 0.16007,1.56358 0.15816,2.45015 l -0.002,0.73168 -0.68614,-0.73168 c -1.84865,-1.97134 -2.20751,-2.2427 -2.95951,-2.23789 -0.48721,0.003 -0.88604,0.14223 -1.2638,0.44083 -0.70236,0.55518 -0.8504,1.21956 -0.39127,1.75596 0.29824,0.34842 0.8404,0.66484 2.6916,1.57092 1.88416,0.92221 2.30169,1.16775 2.68791,1.58065 0.44797,0.47891 0.81439,1.47794 0.81439,2.22039 0,1.56594 -1.29054,3.19395 -2.87684,3.6291 -0.33018,0.0906 -2.32161,0.42596 -2.48015,0.4177 -0.0288,-0.001 -0.48736,-0.10679 -1.01914,-0.23398 z m -40.242794,0.12998 c -1.315418,-0.12448 -2.864782,-0.75391 -4.185214,-1.70024 -0.626123,-0.44873 -1.511237,-1.31821 -1.987159,-1.95207 -1.011725,-1.34746 -1.475241,-2.78932 -1.546684,-4.81127 -0.06726,-1.90352 0.270984,-3.77433 0.911849,-5.04342 0.936239,-1.85401 2.689688,-3.55279 4.37727,-4.24081 1.281906,-0.52263 3.275815,-0.77979 5.016975,-0.64706 1.42199,0.10841 2.410547,0.32394 3.684568,0.80336 l 0.757819,0.28516 0.01513,1.66449 c 0.02583,2.84141 -0.155865,3.68696 -0.545416,2.53821 -0.200987,-0.5927 -0.396581,-0.92454 -0.910933,-1.5455 -0.885702,-1.06927 -1.825548,-1.77711 -2.639504,-1.98792 -1.867975,-0.48381 -4.139079,0.12139 -5.241056,1.39663 -0.539663,0.62451 -1.046181,1.57675 -1.283458,2.41287 -0.519585,1.83092 -0.57956,4.6241 -0.139023,6.47462 0.299974,1.26006 0.875106,2.3233 1.699585,3.14199 2.098371,2.08364 5.082083,2.22983 7.092158,0.3475 0.57893,-0.54213 0.885481,-0.96956 1.305555,-1.82033 0.201228,-0.40755 0.398422,-0.76801 0.438209,-0.80103 0.120822,-0.10027 0.306139,-0.0382 0.390767,0.13091 0.175211,0.3501 0.06099,2.015 -0.21104,3.07614 -0.190325,0.74241 -0.380566,0.9807 -1.053525,1.3196 -1.34623,0.67795 -4.144213,1.12877 -5.946873,0.95817 z m 14.248804,-0.0544 c -0.44269,-0.0647 -1.23229,-0.28274 -1.6963,-0.46854 -1.297986,-0.51972 -2.331114,-1.45118 -2.923586,-2.63589 -0.505322,-1.01044 -0.659709,-1.86308 -0.624579,-3.44938 0.02119,-0.95702 0.04118,-1.16159 0.156077,-1.59789 0.299791,-1.13836 0.698314,-1.81493 1.601413,-2.71874 0.657677,-0.65819 1.010078,-0.91958 1.715145,-1.27218 0.98322,-0.49171 1.89819,-0.68264 3.07138,-0.64091 1.14957,0.0409 2.14445,0.32402 3.04913,0.86775 1.5642,0.94011 2.52171,2.31365 2.86348,4.10765 0.12055,0.63277 0.12257,1.91909 0.004,2.56799 -0.50269,2.75197 -2.45609,4.76014 -5.07445,5.21674 -0.49993,0.0872 -1.62106,0.0994 -2.14175,0.0234 z m 1.73041,-1.48007 c 0.46768,-0.12451 0.75726,-0.29685 1.14272,-0.68008 0.8578,-0.85286 1.2737,-2.3391 1.2072,-4.31399 -0.0436,-1.29439 -0.25143,-2.25269 -0.68605,-3.16321 -0.29488,-0.61778 -0.60618,-1.02465 -1.02253,-1.33645 -0.47552,-0.35611 -0.86168,-0.49197 -1.38578,-0.48755 -0.68063,0.006 -1.24225,0.27383 -1.80187,0.86013 -0.56173,0.5885 -0.86475,1.22827 -1.03033,2.17532 -0.1146,0.65545 -0.13123,2.99892 -0.026,3.66454 0.18558,1.17395 0.49,1.85318 1.10588,2.46753 0.74279,0.74094 1.65432,1.03803 2.49677,0.81376 z m 35.83992,1.50023 c -0.86855,-0.12011 -1.75069,-0.53539 -2.07767,-0.97809 -0.67783,-0.9177 -0.8223,-2.09422 -0.82271,-6.70009 l -2.4e-4,-2.72436 -0.58796,-0.44346 c -0.60341,-0.45511 -0.97994,-0.79193 -0.97994,-0.87659 0,-0.13047 0.57614,-0.28205 2.71459,-0.71418 0.93592,-0.18913 1.76393,-0.35492 1.84004,-0.36842 l 0.13838,-0.0246 0.0261,4.40834 c 0.0321,5.42111 0.006,5.20548 0.71631,5.86334 0.45576,0.42195 0.76096,0.52835 1.51562,0.52835 0.50486,0 0.64913,-0.0192 0.90165,-0.12006 0.38017,-0.15183 0.81154,-0.49028 0.90257,-0.70817 0.13241,-0.31689 0.19564,-1.63985 0.19759,-4.13414 0.002,-2.57233 -0.0237,-2.95461 -0.23036,-3.42174 -0.13483,-0.30479 -0.24131,-0.41615 -0.77845,-0.81413 -0.45808,-0.3394 -0.61982,-0.52221 -0.5361,-0.60592 0.11534,-0.11535 3.47003,-0.84573 4.19997,-0.91442 l 0.34514,-0.0325 0.0343,0.25865 c 0.0809,0.60977 0.13546,3.27367 0.13685,6.67984 l 0.001,3.65843 0.5578,0.31358 c 0.65262,0.36689 0.95724,0.62895 0.95724,0.82348 0,0.17301 -0.22636,0.36457 -0.59285,0.50169 -0.64947,0.243 -2.90237,0.61518 -3.43604,0.56764 -0.53704,-0.0478 -0.62255,-0.17535 -0.62255,-0.92839 0,-0.2861 -0.0114,-0.52018 -0.0255,-0.52018 -0.014,0 -0.30209,0.17323 -0.64022,0.38495 -1.00271,0.62786 -1.55043,0.86097 -2.35091,1.00056 -0.41388,0.0722 -1.13486,0.0916 -1.5042,0.0405 z m 20.77641,-0.0463 c -0.38094,-0.10238 -0.71615,-0.3252 -1.08927,-0.72406 -0.72032,-0.77003 -0.75642,-1.04887 -0.85285,-6.58754 -0.0335,-1.92591 -0.0752,-3.51761 -0.0925,-3.53713 -0.0173,-0.0195 -0.22908,-0.0623 -0.47055,-0.095 -0.52112,-0.0707 -0.82277,-0.18122 -0.90285,-0.33086 -0.16071,-0.3003 0.024,-0.63246 0.54731,-0.98409 0.52349,-0.35177 1.34971,-1.20097 2.20626,-2.26762 0.84904,-1.0573 1.16281,-1.3826 1.33359,-1.3826 0.21243,0 0.23461,0.18852 0.21983,1.86842 l -0.0139,1.58097 h 1.75228 1.75229 l -0.0316,0.22211 c -0.14395,1.01134 -0.16085,1.04649 -0.55789,1.16027 -0.15074,0.0432 -0.82518,0.12651 -1.49876,0.18515 -0.67358,0.0586 -1.2313,0.11321 -1.23938,0.12129 -0.0355,0.0355 -0.12265,2.56466 -0.12185,3.53751 0.002,1.9384 0.15125,3.84373 0.35302,4.49465 0.10896,0.3515 0.43413,0.6992 0.84511,0.90366 0.37221,0.18517 0.55047,0.1783 1.17873,-0.0455 1.31826,-0.46951 1.30269,-0.46928 1.27012,-0.0189 -0.0155,0.21376 -0.0627,0.36294 -0.163,0.51447 -0.39732,0.60038 -1.63983,1.22333 -2.82304,1.41537 -0.46014,0.0747 -1.26676,0.0593 -1.60108,-0.0306 z m 10.51872,0.0312 c -0.63906,-0.0668 -1.02955,-0.18024 -1.60953,-0.46762 -0.67726,-0.33558 -1.28525,-0.79928 -1.9419,-1.48104 -0.65905,-0.68424 -0.988,-1.20809 -1.24664,-1.98523 -0.65641,-1.97229 -0.57704,-3.6961 0.24273,-5.27179 0.43122,-0.82887 1.22378,-1.75068 2.00309,-2.32977 2.37218,-1.76272 5.64255,-1.664 7.89373,0.23827 1.49183,1.26062 2.32329,3.36712 2.12576,5.38565 -0.23812,2.43341 -1.67548,4.58904 -3.5919,5.38685 -1.0066,0.41905 -2.69667,0.64786 -3.87534,0.52468 z m 2.14921,-1.51352 c 0.58739,-0.20305 0.97924,-0.52328 1.30527,-1.0667 0.63334,-1.05564 0.86187,-3.15504 0.57246,-5.25912 -0.10889,-0.79171 -0.27932,-1.37934 -0.57599,-1.98601 -0.51779,-1.05885 -1.39943,-1.62976 -2.52571,-1.63555 -0.57374,-0.003 -0.8878,0.15924 -1.48951,0.76922 -0.68759,0.69704 -0.97852,1.24154 -1.18102,2.21037 -0.47571,2.27605 0.0723,5.20678 1.18038,6.31254 0.72967,0.72815 1.77395,0.98026 2.71412,0.65525 z m 26.50175,1.53464 c -0.39475,-0.0516 -0.78643,-0.15728 -1.47055,-0.39676 l -0.73887,-0.25864 -0.20937,-0.45366 c -0.11516,-0.24952 -0.29775,-0.72413 -0.40576,-1.0547 -0.16089,-0.49238 -0.1954,-0.67188 -0.19095,-0.993 0.0138,-0.99876 0.5604,-1.84141 1.66093,-2.5607 0.80247,-0.52448 1.75515,-0.91945 3.75868,-1.55832 l 1.30659,-0.41663 -0.0174,-0.85491 c -0.01,-0.47136 -0.0522,-1.02768 -0.0949,-1.24 -0.15339,-0.76296 -0.47567,-1.27953 -0.96622,-1.54875 -0.2433,-0.13353 -0.33331,-0.15355 -0.68107,-0.15149 -0.78089,0.005 -1.09809,0.30858 -1.5333,1.46937 -0.27296,0.72805 -0.47807,1.08678 -0.79038,1.38238 -0.33593,0.31795 -0.61752,0.43563 -1.04238,0.43563 -0.46741,0 -0.73066,-0.1527 -0.91753,-0.53225 -0.10861,-0.2206 -0.12392,-0.32595 -0.12392,-0.85273 0,-0.58331 0.005,-0.61059 0.17602,-0.92558 0.77629,-1.43133 2.84779,-2.38823 4.97192,-2.29669 1.31783,0.0568 2.16257,0.40644 2.97902,1.23306 0.5269,0.53348 0.78313,1.16757 0.94107,2.32893 0.0313,0.22996 0.0772,1.74693 0.102,3.37104 0.051,3.33521 0.0853,3.69594 0.38216,4.01279 0.10811,0.1154 0.42727,0.22871 0.83807,0.29752 0.264,0.0442 0.40213,0.18921 0.40213,0.42206 0,0.35884 -0.22421,0.62928 -0.66517,0.80234 -0.45068,0.17687 -1.30335,0.33115 -1.86961,0.33828 -0.48506,0.006 -0.54062,-0.004 -0.77296,-0.14056 -0.33374,-0.19618 -0.55644,-0.39697 -0.99575,-0.89781 -0.20185,-0.23013 -0.38163,-0.42472 -0.3995,-0.43243 -0.0179,-0.008 -0.30169,0.18815 -0.6307,0.43522 -0.64567,0.48488 -1.24999,0.80651 -1.748,0.93033 -0.3369,0.0838 -0.99888,0.14005 -1.25432,0.10666 z m 2.40005,-1.99739 c 0.44039,-0.20608 0.99567,-0.74463 1.19538,-1.15937 0.19397,-0.40279 0.26175,-0.9358 0.2359,-1.85508 -0.0222,-0.79 -0.0616,-0.96704 -0.24676,-1.1092 -0.20152,-0.15473 -0.80203,0.0137 -1.82105,0.51065 -0.75713,0.36926 -1.20184,0.76005 -1.45399,1.2777 -0.14055,0.28856 -0.15274,0.35946 -0.15274,0.88848 0,0.49024 0.0173,0.60995 0.11731,0.81294 0.15671,0.31798 0.40163,0.56101 0.7189,0.71337 0.3773,0.18119 0.9149,0.15081 1.40705,-0.0795 z m -90.43823,1.55744 c -0.97667,-0.0746 -1.12309,-0.1407 -0.8815,-0.39807 0.0683,-0.0728 0.32411,-0.25285 0.56844,-0.40018 0.57049,-0.34399 0.92508,-0.6733 0.99181,-0.92112 0.1335,-0.49577 0.21305,-5.66817 0.10691,-6.95138 -0.0816,-0.98702 -0.24611,-1.3271 -0.85117,-1.75987 -0.45132,-0.32282 -0.61339,-0.49651 -0.61339,-0.65738 0,-0.0944 0.0426,-0.17321 0.12146,-0.22492 0.45755,-0.29979 3.16418,-0.94282 3.81135,-0.90548 0.24528,0.0142 0.28139,0.032 0.34973,0.17258 0.0444,0.0914 0.0882,0.39016 0.10496,0.71617 l 0.0288,0.55939 0.65616,-0.42873 c 0.79372,-0.5186 1.21131,-0.72697 1.79705,-0.89671 1.19031,-0.34494 2.47458,-0.29483 3.32224,0.12962 0.36494,0.18274 0.87348,0.56702 1.05169,0.79471 0.64724,0.82696 0.82667,2.07797 0.83034,5.78913 0.003,2.85902 0.0825,3.73167 0.37437,4.10279 0.15585,0.19813 0.67919,0.52893 0.90329,0.57098 0.19733,0.037 0.28934,0.15309 0.28934,0.365 0,0.19961 -0.18224,0.28465 -0.73463,0.34283 -0.9732,0.10249 -4.78912,0.0444 -5.17737,-0.0788 -0.0541,-0.0172 -0.0983,-0.0567 -0.0983,-0.0879 0,-0.0565 0.27381,-0.33235 0.87063,-0.877 0.53587,-0.48904 0.58185,-0.78361 0.62813,-4.02428 0.0404,-2.82667 -0.0274,-3.52092 -0.41502,-4.25037 -0.29828,-0.56135 -0.96816,-0.98329 -1.61953,-1.0201 -0.69055,-0.039 -1.5493,0.22202 -1.96759,0.5981 -0.44582,0.40082 -0.60246,0.96097 -0.68546,2.45117 -0.0632,1.13506 -0.0636,3.74939 -7.1e-4,4.72397 0.0596,0.92354 0.1543,1.16168 0.60406,1.51904 0.39022,0.31005 0.65175,0.60578 0.65175,0.73697 0,0.15779 -0.26583,0.2469 -0.92223,0.30915 -0.62857,0.0596 -3.31819,0.0601 -4.09558,7.3e-4 z m 39.5639,0.004 c -0.60686,-0.0449 -0.88848,-0.0948 -0.88848,-0.15757 0,-0.0984 0.43597,-0.50794 0.99301,-0.93283 l 0.60102,-0.45845 v -7.64972 -7.64972 l -0.54876,-0.3353 c -0.61175,-0.37379 -0.77993,-0.51536 -0.91896,-0.77351 -0.0925,-0.17175 -0.0923,-0.17942 0.007,-0.29162 0.12473,-0.14099 0.87798,-0.50238 1.51305,-0.72592 0.93542,-0.32926 1.58334,-0.47652 2.23426,-0.50779 l 0.61409,-0.0295 v 9.01002 9.01001 l 0.65574,0.38831 c 0.73131,0.43306 1.13196,0.79841 1.00956,0.9206 -0.0392,0.0391 -0.28293,0.0969 -0.54164,0.12844 -0.58049,0.0707 -3.98087,0.10992 -4.72983,0.0546 z m 29.12567,-0.008 c -0.35108,-0.027 -0.69957,-0.0724 -0.77441,-0.10089 l -0.13609,-0.0517 0.10931,-0.15351 c 0.11783,-0.16547 0.67745,-0.63084 1.19613,-0.99468 l 0.32178,-0.22571 v -4.18985 -4.18985 l -0.14373,-0.13172 c -0.079,-0.0725 -0.4561,-0.37478 -0.83789,-0.67185 -0.38179,-0.29707 -0.67577,-0.55702 -0.65329,-0.57768 0.083,-0.0763 1.26526,-0.46031 1.97462,-0.64141 1.01013,-0.2579 1.74464,-0.40101 2.0582,-0.40101 0.3857,0 0.43659,0.11858 0.47382,1.10409 l 0.0289,0.76437 0.5749,-0.5199 c 0.73008,-0.66024 1.14031,-0.95594 1.58593,-1.14317 1.54516,-0.64921 2.80384,0.0775 2.71444,1.56712 -0.0272,0.45253 -0.1869,0.82638 -0.47712,1.1166 -0.2781,0.27809 -0.52959,0.37762 -0.94876,0.37548 -0.42081,-0.002 -0.55943,-0.062 -0.9731,-0.42011 -0.31205,-0.27013 -0.73425,-0.49195 -0.93452,-0.49097 -0.34395,0.002 -0.9732,0.47314 -1.24069,0.92958 -0.2841,0.48477 -0.28909,0.55156 -0.30545,4.08604 l -0.0151,3.26647 0.53238,0.49624 c 0.55881,0.5209 1.02887,1.02132 1.02887,1.09534 0,0.024 -0.1,0.0571 -0.22212,0.0734 -0.41595,0.0556 -4.2962,0.0786 -4.93698,0.0293 z m 10.22865,0.002 c -0.70811,-0.0524 -1.00358,-0.10819 -1.03245,-0.19479 -0.0316,-0.0949 0.27917,-0.35387 0.67331,-0.56098 0.39618,-0.20819 0.59124,-0.41001 0.67096,-0.69422 0.13472,-0.48029 0.31877,-2.62067 0.42065,-4.89177 0.10371,-2.31223 -0.0966,-3.5602 -0.64925,-4.04546 -0.0957,-0.084 -0.36414,-0.26585 -0.59665,-0.40416 -0.2325,-0.1383 -0.43529,-0.2842 -0.45065,-0.32421 -0.0367,-0.0956 0.20494,-0.31821 0.46758,-0.43079 0.3758,-0.16109 1.02684,-0.30616 2.11666,-0.47167 0.58927,-0.0895 1.26729,-0.20855 1.5067,-0.26457 0.23942,-0.056 0.45696,-0.10185 0.48344,-0.10185 0.0289,0 0.0491,1.49058 0.0504,3.72376 0.003,4.59271 0.0521,6.46506 0.1823,6.92905 0.0851,0.30344 0.12468,0.35851 0.48761,0.67913 0.84586,0.74726 0.90008,0.86016 0.47758,0.99436 -0.28037,0.0891 -3.81392,0.13181 -4.80823,0.0582 z m 1.04801,-13.29616 c -0.0974,-0.1037 -0.11348,-0.16246 -0.0854,-0.31228 0.11817,-0.62991 1.54999,-3.53729 1.96937,-3.99891 0.19767,-0.21757 0.58622,-0.28703 1.58878,-0.284 0.79378,0.002 1.28045,0.0682 1.28045,0.17305 0,0.20543 -4.3841,4.54987 -4.5914,4.54987 -0.023,0 -0.0958,-0.0575 -0.16182,-0.12773 z m -58.55038,-6.66737 c -0.40355,-0.0639 -1.15483,-0.31993 -1.6068,-0.54754 -0.71464,-0.35989 -0.97103,-0.72837 -0.96389,-1.38534 0.009,-0.87064 0.45625,-1.35437 1.19432,-1.29306 0.42964,0.0357 0.84965,0.23334 1.41535,0.66605 0.58778,0.44959 0.88393,0.5852 1.27797,0.5852 0.38442,0 0.74055,-0.17574 1.11237,-0.54891 0.50959,-0.51144 0.70545,-1.04827 0.84808,-2.32456 0.16244,-1.45358 0.19201,-3.05263 0.22082,-11.9402 l 0.0291,-8.97585 -1.18243,-1.20537 c -0.65033,-0.66296 -1.18243,-1.23686 -1.18243,-1.27534 0,-0.11261 1.25384,-0.14456 4.75597,-0.1212 3.33954,0.0223 3.4906,0.0333 3.61437,0.26461 0.15879,0.2967 -0.15563,0.70391 -0.78278,1.01379 -0.42997,0.21246 -0.84924,0.52054 -0.98002,0.72015 -0.20931,0.31945 -0.2768,2.20787 -0.33625,9.40897 -0.0662,8.02116 -0.17142,9.90576 -0.65449,11.72613 -0.64036,2.41314 -2.66653,4.51814 -4.91,5.10104 -0.57956,0.15058 -1.38906,0.2075 -1.86925,0.13143 z m -14.39812,-5.74974 c -0.59641,-0.0752 -1.67363,-0.30509 -2.09989,-0.44819 -1.2688,-0.42591 -2.36079,-1.20413 -3.05527,-2.17736 -1.24362,-1.74278 -1.36309,-4.3663 -0.27621,-6.06537 0.22909,-0.35814 0.88079,-1.04918 1.31271,-1.39197 0.17361,-0.13778 0.96241,-0.703 1.7529,-1.25603 0.79048,-0.55304 1.44596,-1.01352 1.45662,-1.0233 0.0107,-0.01 -0.0952,-0.14447 -0.23519,-0.29932 -1.56608,-1.73204 -1.85367,-2.10933 -2.3187,-3.04197 -0.45902,-0.92056 -0.59812,-1.47998 -0.59779,-2.40412 1.9e-4,-0.5438 0.0249,-0.82449 0.0964,-1.09311 0.60384,-2.27072 2.54532,-3.67836 5.10033,-3.69791 1.08767,-0.008 2.0228,0.21456 2.92675,0.69758 2.3879,1.27597 3.18652,3.66025 2.03682,6.08097 -0.42056,0.8855 -1.84459,2.34393 -3.11414,3.18938 -0.32954,0.21945 -0.6359,0.45507 -0.6808,0.52361 -0.0772,0.11787 -0.0731,0.13529 0.0767,0.32172 0.20339,0.25317 1.0203,1.05218 2.04725,2.00243 0.44555,0.41227 1.59354,1.49176 2.55108,2.39888 0.95755,0.90711 1.76456,1.64929 1.79335,1.64929 0.11554,0 0.72366,-1.58882 1.39447,-3.6433 0.73355,-2.24662 0.82389,-2.37452 1.64777,-2.33292 0.5534,0.0279 0.57654,0.0565 0.54301,0.67016 -0.0615,1.12513 -0.73088,3.04866 -1.87581,5.39023 l -0.62892,1.28622 0.88088,1.0395 c 1.27479,1.50435 1.97961,2.43674 2.2625,2.99302 0.14583,0.28677 0.0981,0.34848 -0.33078,0.42776 -0.80158,0.14818 -1.3129,-0.14734 -3.29511,-1.90445 l -1.09399,-0.96976 -0.27793,0.2334 c -0.15286,0.12837 -0.4014,0.33665 -0.55231,0.46285 -0.70013,0.58548 -1.86608,1.24119 -2.98486,1.67864 -1.45426,0.56863 -3.26572,0.85422 -4.46182,0.70344 z m 2.89857,-1.85364 c 1.34978,-0.25756 2.7172,-0.98443 3.65964,-1.94535 0.26589,-0.2711 0.48343,-0.51205 0.48343,-0.53545 0,-0.0555 -5.14615,-5.1051 -6.06255,-5.94881 -0.38805,-0.35728 -0.75762,-0.67393 -0.82125,-0.70367 -0.0953,-0.0445 -0.16732,-0.0228 -0.40847,0.12331 -0.68864,0.41725 -2.29287,1.94704 -2.73311,2.6063 -0.75379,1.12882 -0.7776,3.10686 -0.0521,4.32612 0.64776,1.08858 2.16628,1.94758 3.80595,2.15295 0.51849,0.0649 1.59234,0.0269 2.12844,-0.0754 z m -1.37071,-11.8319 c 0.55312,-0.25505 1.69172,-1.65806 2.14928,-2.64839 0.38949,-0.84299 0.5129,-1.87268 0.31595,-2.63604 -0.42752,-1.65701 -2.01891,-2.65266 -3.63201,-2.27238 -1.19899,0.28266 -2.0542,1.31881 -2.13698,2.5891 -0.0468,0.71819 0.11258,1.40629 0.51699,2.23199 0.51623,1.05401 1.67853,2.49499 2.20549,2.73429 0.2674,0.12143 0.32076,0.12156 0.58128,10e-4 z m -25.572284,13.20916 c -0.133944,-0.038 -0.225572,-0.13124 -0.411738,-0.41902 -0.460048,-0.71117 -0.990057,-1.90732 -3.80564,-8.58877 -2.439348,-5.78863 -3.277275,-7.70885 -3.363925,-7.70885 -0.07269,0 -0.150169,0.3744 -0.237945,1.1498 -0.327947,2.89702 -0.647618,10.66986 -0.510767,12.41938 0.087,1.11225 0.252539,1.3286 1.478625,1.93248 0.384893,0.18957 0.776241,0.4023 0.869661,0.47273 0.321653,0.24249 0.172498,0.427 -0.433392,0.53612 -0.826035,0.14876 -4.242601,0.2509 -5.615585,0.16788 -0.788005,-0.0476 -0.869716,-0.0618 -0.953806,-0.16569 -0.128095,-0.15819 -0.114704,-0.34723 0.03438,-0.4854 0.06949,-0.0644 0.377379,-0.24037 0.684189,-0.39103 0.914121,-0.44888 1.337718,-0.9508 1.507713,-1.78647 0.230676,-1.13397 0.47256,-3.69396 0.711099,-7.52593 0.228902,-3.67716 0.282777,-4.95165 0.284996,-6.74197 0.0022,-1.73458 -0.0048,-1.87982 -0.107461,-2.23114 -0.208958,-0.71542 -0.472255,-1.01872 -1.22088,-1.40639 -0.215587,-0.11164 -0.515448,-0.3221 -0.666358,-0.46768 -0.246329,-0.23764 -0.274383,-0.28738 -0.274383,-0.48653 0,-0.20403 0.01465,-0.22795 0.182543,-0.2981 0.100398,-0.042 0.3885,-0.0907 0.640226,-0.1084 0.403702,-0.0283 5.818185,0.0716 5.854647,0.10802 0.02296,0.023 3.431046,8.24667 4.517405,10.9005 1.0427,2.54718 1.794827,4.4406 1.943867,4.89355 0.04854,0.14753 0.133726,0.30938 0.189292,0.35967 0.09238,0.0836 0.111658,0.0845 0.225141,0.0101 0.188657,-0.12361 0.450345,-0.67475 1.630544,-3.4341 2.709286,-6.33441 4.502546,-10.42407 5.184886,-11.82459 l 0.5029,-1.0322 h 2.38324 c 2.26089,0 3.04789,0.0373 3.43931,0.16283 0.17555,0.0563 0.32616,0.17508 0.32616,0.25719 0,0.11847 -0.38273,0.45824 -0.94695,0.84066 -0.73629,0.49903 -1.06212,0.83535 -1.1121,1.14789 -0.22071,1.38028 -0.13245,15.82651 0.10694,17.50378 0.0286,0.2001 0.0817,0.28196 0.35618,0.54876 0.17743,0.17247 0.46211,0.39445 0.63262,0.49329 0.45126,0.26157 0.7508,0.51504 0.84695,0.71668 0.17796,0.37318 -0.0632,0.4279 -2.17495,0.49351 -1.85513,0.0576 -4.99946,-0.008 -5.36527,-0.11157 -0.2901,-0.0823 -0.37293,-0.17086 -0.30315,-0.324 0.10125,-0.22222 0.34126,-0.4627 0.71584,-0.71727 0.41393,-0.28131 0.6333,-0.49737 0.83351,-0.8209 0.44906,-0.72572 0.4787,-1.24227 0.4777,-8.32706 -7.7e-4,-5.45549 -0.0467,-7.43893 -0.17784,-7.67318 -0.035,-0.0626 -0.0811,-0.0103 -0.20189,0.2291 -0.32078,0.63547 -1.44044,3.21935 -4.573191,10.55375 -1.543753,3.61424 -2.625466,6.09083 -2.895179,6.62854 -0.152485,0.304 -0.211569,0.37089 -0.398406,0.45104 -0.285094,0.12231 -0.594262,0.1601 -0.809761,0.099 z"
         id="path2" /></g></g></svg>
