<?xml version="1.0" encoding="UTF-8" standalone="no"?>
<!-- Created with Inkscape (http://www.inkscape.org/) -->

<svg
   width="209.99979mm"
   height="154.14276mm"
   viewBox="0 0 209.99979 154.14276"
   version="1.1"
   id="svg1"
   xml:space="preserve"
   xmlns="http://www.w3.org/2000/svg"
   xmlns:svg="http://www.w3.org/2000/svg"><defs
     id="defs1" /><g
     id="layer1"
     transform="translate(0.16216,-67.80508)"><path
       style="fill:#ffffff;fill-opacity:1;stroke-width:1.27421"
       d="m 47.720644,221.89739 c -1.482341,-0.1415 -2.628726,-0.90864 -3.312033,-2.21634 -0.973064,-1.86225 -0.574918,-11.00074 0.948896,-21.77952 3.073825,-21.74292 7.775889,-28.10358 28.450014,-38.4854 4.454092,-2.23669 8.379981,-4.3158 8.724211,-4.62023 1.672931,-1.47956 2.397896,-4.37817 2.770298,-11.07644 l 0.2289,-4.11732 -1.606735,-1.78256 c -5.03067,-5.58118 -9.526871,-14.61147 -11.086776,-22.26699 -3.534437,-17.3459 0.73212,-33.179924 11.113203,-41.243251 6.294908,-4.889461 16.515068,-7.362191 25.768988,-6.234701 4.53765,0.552857 6.72807,1.200426 10.95694,3.239248 6.05779,2.920606 10.22919,7.260407 13.45953,14.002933 2.85971,5.968921 4.109,12.730471 3.79628,20.546491 -0.48714,12.17463 -4.89551,23.92108 -11.86128,31.60533 l -1.909,2.10589 0.22253,4.63684 c 0.25666,5.34842 0.85068,8.18652 2.03972,9.74544 0.63219,0.82882 2.85546,2.12261 8.9909,5.23204 4.48306,2.27202 9.22101,4.83077 10.52875,5.6861 3.42225,2.23832 7.88243,6.05029 9.72897,8.31503 1.76014,2.15873 4.52507,7.4912 5.64604,10.88896 2.33421,7.07526 4.35799,22.06482 4.36368,32.32047 l 0.001,2.82103 -1.30889,1.30889 c -0.79544,0.79544 -1.62199,1.30565 -2.10709,1.30064 -0.43901,-0.005 -26.13402,0.0334 -57.1,0.0842 -30.96596,0.0508 -56.817394,0.0433 -57.44762,-0.0168 z M 157.92982,211.80841 c -8.7e-4,-8.08299 -2.24255,-21.34401 -4.69928,-27.79935 -1.25199,-3.28974 -3.75565,-6.72836 -6.76448,-9.29059 -3.45938,-2.94591 -6.34587,-4.66872 -15.75748,-9.40487 -4.12449,-2.07553 -7.94109,-4.08846 -8.48135,-4.47315 -1.26792,-0.90285 -2.86651,-3.32855 -3.76943,-5.71975 -0.76736,-2.03213 -1.65496,-6.80818 -1.65703,-8.91625 l -0.001,-1.29519 -2.10711,1.15691 c -3.60577,1.97979 -5.36526,2.42159 -9.69266,2.43383 -4.2623,0.0115 -6.49885,-0.54781 -10.085169,-2.52446 -1.003942,-0.55332 -1.848824,-0.96776 -1.87752,-0.92095 -0.02868,0.0467 -0.223854,1.68844 -0.433679,3.64807 -0.618454,5.77627 -2.584199,10.12397 -5.537055,12.24653 -0.745773,0.53607 -4.866919,2.73798 -9.158076,4.89313 -12.977147,6.5175 -17.634739,10.16888 -20.441182,16.02514 -3.080091,6.4273 -5.165085,16.69654 -5.634069,27.74956 l -0.203844,4.80419 h 53.150494 53.15049 z m -50.48574,-71.03975 c 4.73973,-1.00442 10.74936,-5.26859 14.54921,-10.3235 2.04706,-2.72321 4.71034,-8.05041 6.08009,-12.16166 1.67776,-5.03576 2.33316,-10.07806 2.11837,-16.29726 C 129.68914,87.43388 123.48633,78.801397 111.51619,75.995395 108.52181,75.293467 99.769811,75.498463 96.739865,76.341497 90.413,78.101865 85.425986,82.225015 82.644678,87.9951 c -2.464731,5.11331 -3.356879,9.46356 -3.311122,16.14553 0.0766,11.1863 4.057404,21.90341 10.821886,29.13466 4.256035,4.54972 9.888418,7.63313 14.507138,7.94183 0.27813,0.0186 1.52981,-0.18323 2.7815,-0.44846 z m -89.715498,69.01698 c -14.5784279,-0.087 -15.3359353,-0.12219 -16.2223017,-0.75332 -1.61705161,-1.15144 -1.81610454,-2.17675 -1.59290648,-8.20493 0.22936909,-6.19486 0.88745073,-11.64305 2.14519368,-17.75986 1.6230252,-7.89329 3.4363035,-11.70777 7.6537802,-16.10079 3.4055323,-3.54727 6.8200333,-5.83563 14.6090623,-9.79074 7.905061,-4.01406 7.789029,-3.86105 8.209768,-10.8264 l 0.273113,-4.5214 -1.610839,-1.88418 c -2.346747,-2.74497 -3.629827,-4.76058 -5.243053,-8.23638 -3.01625,-6.49871 -4.223364,-11.95541 -4.223364,-19.09152 0,-18.32977 10.630131,-30.029584 27.266988,-30.010781 5.16599,0.0063 9.347107,0.869219 12.968205,2.67788 1.512329,0.755377 3.073081,1.636641 3.468337,1.958351 l 0.718649,0.58495 -0.881988,4.29849 c -0.485093,2.36416 -0.98823,4.29849 -1.118083,4.29849 -0.129851,0 -1.042473,-0.80399 -2.028046,-1.78666 -3.229919,-3.22035 -6.405346,-4.27184 -12.918524,-4.27779 -6.836658,-0.006 -9.971607,1.12323 -13.926996,5.01768 -3.323328,3.27214 -5.09825,7.67907 -5.801605,14.40471 -0.999659,9.55897 2.531221,20.23656 8.747423,26.45276 2.446144,2.44616 5.694035,4.55625 8.08118,5.25021 5.270183,1.53209 11.154957,-1.2781 16.080248,-7.67889 1.548648,-2.01258 4.520478,-7.82987 4.520478,-8.84873 0,-1.17419 0.617236,-0.45838 1.341817,1.55612 0.41684,1.15892 1.366692,3.28738 2.110782,4.72995 l 1.352889,2.62284 -1.602415,2.40982 c -0.88133,1.32539 -2.26846,3.12186 -3.082514,3.99215 l -1.480096,1.58235 0.302062,4.05444 c 0.235042,3.15486 0.487896,4.46036 1.139634,5.88395 l 0.837571,1.82949 -1.544551,0.81794 c -0.849503,0.44987 -2.362398,1.30982 -3.361986,1.91099 -0.99959,0.60119 -1.96993,0.99881 -2.156311,0.88362 -0.714626,-0.44166 -1.639457,-3.23628 -2.111402,-6.38015 -0.270401,-1.8013 -0.541285,-3.32473 -0.601961,-3.3854 -0.06068,-0.0607 -1.071794,0.27804 -2.246925,0.75269 -4.270336,1.72487 -8.919768,1.70986 -13.232845,-0.0427 -1.140633,-0.46348 -2.111805,-0.80478 -2.158161,-0.75842 -0.04636,0.0464 -0.258563,1.35717 -0.471575,2.91292 -0.962242,7.02782 -2.432128,8.68986 -11.973257,13.53859 -7.516511,3.81982 -9.914495,5.3888 -12.666217,8.28736 -2.995377,3.15524 -4.135348,5.61241 -5.6881787,12.26074 -0.8795544,3.76572 -2.0423518,12.61758 -2.0423518,15.5475 v 2.32071 H 22.18144 36.795569 l -0.141752,3.45566 c -0.07797,1.9006 -0.20183,3.64528 -0.275256,3.87707 -0.0873,0.27556 -0.691401,0.39346 -1.74548,0.34065 -0.886589,-0.0444 -8.493613,-0.12181 -16.904499,-0.17202 z m 171.348448,6e-5 -15.88359,-0.091 -0.23438,-2.94669 c -0.12891,-1.62066 -0.31781,-3.28801 -0.41978,-3.70523 l -0.18541,-0.75854 h 14.91387 14.91386 l -0.23253,-4.12992 c -0.46826,-8.31675 -2.25194,-17.24839 -4.27957,-21.42979 -1.34747,-2.77876 -4.43692,-6.04494 -7.84507,-8.29387 -1.50262,-0.99153 -5.46283,-3.21846 -8.80049,-4.94873 -3.33764,-1.73026 -6.68965,-3.71813 -7.44891,-4.41748 -2.00682,-1.84849 -3.4325,-5.15435 -3.75829,-8.71468 -0.29599,-3.23493 -0.1614,-3.15387 -3.28965,-1.98081 -4.08139,1.5305 -9.88219,1.22344 -13.70201,-0.7253 l -1.24828,-0.63682 -0.21266,2.26919 c -0.24831,2.64965 -1.39095,6.6009 -2.1655,7.48818 -0.51746,0.59278 -0.68237,0.54197 -3.9873,-1.22889 l -3.44752,-1.84725 0.54485,-0.83155 c 0.88431,-1.34962 1.45081,-4.45352 1.45644,-7.9799 l 0.005,-3.29722 -1.78622,-2.1056 c -0.98242,-1.15807 -2.26885,-2.94911 -2.8587,-3.98009 l -1.07249,-1.87449 1.45846,-2.83677 c 0.80214,-1.56023 1.66211,-3.63326 1.91103,-4.60673 0.24891,-0.97349 0.55304,-1.76998 0.67584,-1.76998 0.12283,0 0.77612,1.30603 1.45184,2.90229 1.64958,3.89683 3.77163,7.00102 6.62802,9.69558 3.01714,2.84623 4.55671,3.80814 7.16411,4.47613 8.8354,2.26352 18.4823,-6.52426 21.83595,-19.89133 0.87823,-3.50044 1.00288,-4.59382 1.00288,-8.7959 0,-3.65057 -0.15694,-5.41226 -0.65602,-7.36366 -1.97763,-7.73241 -6.365,-12.67185 -12.94188,-14.57039 -2.65449,-0.76625 -9.71535,-0.77299 -12.51151,-0.0115 -2.6812,0.72976 -5.05751,2.14201 -7.09071,4.21403 l -1.67787,1.70991 -0.89011,-4.47201 -0.8901,-4.472 0.71372,-0.58274 c 0.39256,-0.32051 1.7395,-1.126159 2.99321,-1.790345 7.83222,-4.149292 20.75157,-3.733256 27.92066,0.899128 2.95279,1.907967 6.65105,5.706097 8.32888,8.553827 1.56783,2.66102 3.56959,8.34194 4.09844,11.63121 0.58173,3.6181 0.4359,10.23469 -0.31784,14.42056 -1.32028,7.33221 -4.83517,14.8569 -9.0533,19.38137 l -1.49673,1.60543 0.19859,3.78876 c 0.25128,4.79386 0.90348,7.03941 2.35575,8.11087 0.59697,0.44044 3.66449,2.13127 6.81671,3.75743 6.89354,3.55619 9.41556,5.18481 12.61243,8.14461 4.57725,4.23782 6.5839,7.9744 8.47592,15.78293 1.46416,6.04262 2.32648,12.45135 2.56637,19.07291 0.18801,5.18889 0.14388,6.03913 -0.36442,7.02208 -0.58042,1.12242 -2.85655,2.47796 -3.90497,2.32558 -0.27813,-0.0404 -7.65331,-0.11443 -16.38929,-0.16443 z"
       id="path2" /></g></svg>
